<?xml version="1.0" encoding="UTF-8"?>
<svg width="72px" height="72px" viewBox="0 0 72 72" version="1.1" xmlns="http://www.w3.org/2000/svg" xmlns:xlink="http://www.w3.org/1999/xlink">
    <!-- Generator: Sketch 49 (51002) - http://www.bohemiancoding.com/sketch -->
    <title>Group 8</title>
    <desc>Created with Sketch.</desc>
    <defs>
        <circle id="path-1" cx="21" cy="21" r="21"></circle>
        <filter x="-63.1%" y="-44.0%" width="226.2%" height="226.2%" filterUnits="objectBoundingBox" id="filter-2">
            <feOffset dx="0" dy="8" in="SourceAlpha" result="shadowOffsetOuter1"></feOffset>
            <feGaussianBlur stdDeviation="7.5" in="shadowOffsetOuter1" result="shadowBlurOuter1"></feGaussianBlur>
            <feColorMatrix values="0 0 0 0 0   0 0 0 0 0   0 0 0 0 0  0 0 0 0.354534647 0" type="matrix" in="shadowBlurOuter1"></feColorMatrix>
        </filter>
    </defs>
    <g id="Page-1" stroke="none" stroke-width="1" fill="none" fill-rule="evenodd">
        <g id="5-copy-2" transform="translate(-144.000000, -263.000000)">
            <g id="Group-8" transform="translate(159.000000, 270.000000)">
                <g id="Oval-3">
                    <use fill="black" fill-opacity="1" filter="url(#filter-2)" xlink:href="#path-1"></use>
                    <use fill="#FFFFFF" fill-rule="evenodd" xlink:href="#path-1"></use>
                </g>
                <path d="M25.198,26.724 C24.946,26.976 24.638,27.228 24.358,27.452 C24.358,27.452 25.478,29.496 25.478,29.748 C25.478,30.168 25.002,30.308 24.61,30.308 C24.302,30.308 23.994,30.28 23.826,29.944 L22.958,28.236 C21.754,29.3 19.906,30 18.31,30 C15.93,30 13.858,28.376 13.858,25.856 C13.858,23.224 16.182,20.844 18.142,19.388 C17.638,18.352 17.19,17.204 17.19,16 C17.19,13.564 18.898,11.38 21.446,11.38 C23.238,11.38 25.058,12.528 25.058,14.544 C25.058,17.176 22.706,18.912 20.746,20.116 C21.726,22.132 22.762,24.148 23.77,26.164 C23.77,26.164 24.61,25.016 25.142,25.016 C25.478,25.016 25.786,25.38 25.786,25.688 C25.786,26.024 25.506,26.416 25.198,26.724 Z M21.726,12.472 C20.018,12.472 18.926,14.208 18.926,15.832 C18.926,16.784 19.178,17.708 19.542,18.604 C21.25,17.456 22.986,15.944 22.986,13.76 C22.986,12.92 22.566,12.472 21.726,12.472 Z M22.37,27.116 L19.29,20.816 C17.554,22.188 15.762,24.288 15.762,26.5 C15.762,28.124 16.658,28.88 18.254,28.88 C19.794,28.88 21.138,28.012 22.37,27.116 Z" id="&amp;" fill="#0EC1D1"></path>
            </g>
        </g>
    </g>
</svg>