<?xml version="1.0" encoding="UTF-8"?>
<svg width="6px" height="8px" viewBox="0 0 6 8" version="1.1" xmlns="http://www.w3.org/2000/svg" xmlns:xlink="http://www.w3.org/1999/xlink">
    <!-- Generator: Sketch 49 (51002) - http://www.bohemiancoding.com/sketch -->
    <title>Group 2</title>
    <desc>Created with Sketch.</desc>
    <defs></defs>
    <g id="Page-1" stroke="none" stroke-width="1" fill="none" fill-rule="evenodd">
        <g id="iPhone-8" transform="translate(-155.000000, -253.000000)" fill="#FFFFFF">
            <g id="Group-2" transform="translate(155.000000, 253.000000)">
                <g id="CTA_arrow">
                    <path d="M3.21941624,4.00302594 L0.384382981,1.78805521 C-0.0508233413,1.44803477 -0.127986742,0.819589302 0.212033702,0.384382981 C0.552054146,-0.0508233413 1.18049961,-0.127986742 1.61570593,0.212033702 L5.38178237,3.15441509 C5.47645259,3.21422402 5.56261161,3.29107427 5.63551237,3.38438298 C5.77914056,3.56821869 5.84833039,3.78653417 5.84753936,4.00302594 C5.84833039,4.21951772 5.77914056,4.4378332 5.63551237,4.62166891 C5.56261161,4.71497761 5.47645259,4.79182787 5.38178237,4.8516368 L1.61570593,7.79401818 C1.18049961,8.13403863 0.552054146,8.05687523 0.212033702,7.62166891 C-0.127986742,7.18646258 -0.0508233413,6.55801712 0.384382981,6.21799668 L3.21941624,4.00302594 Z" id="Combined-Shape"></path>
                </g>
            </g>
        </g>
    </g>
</svg>