<?xml version="1.0" encoding="UTF-8"?>
<svg width="12px" height="12px" viewBox="0 0 12 12" version="1.1" xmlns="http://www.w3.org/2000/svg" xmlns:xlink="http://www.w3.org/1999/xlink">
    <!-- Generator: Sketch 50.2 (55047) - http://www.bohemiancoding.com/sketch -->
    <title>icons8-crown</title>
    <desc>Created with Sketch.</desc>
    <defs></defs>
    <g id="Page-5" stroke="none" stroke-width="1" fill="none" fill-rule="evenodd">
        <g id="icons8-crown" fill="#FFFFFF" fill-rule="nonzero">
            <path d="M6,0 C5.4472655,0 5,0.511160571 5,1.14285714 C5,1.622768 5.2597655,2.02678571 5.625,2.19642857 L4,6.85714286 L1.765625,4.73214286 C1.9101565,4.53348229 2,4.27901771 2,4 C2,3.36830343 1.5527345,2.85714286 1,2.85714286 C0.4472655,2.85714286 0,3.36830343 0,4 C0,4.63169657 0.4472655,5.14285714 1,5.14285714 C1.0683595,5.14285714 1.138672,5.14062514 1.203125,5.125 L2.046875,9.71428571 L9.953125,9.71428571 L10.796875,5.125 C10.861328,5.14062514 10.9316405,5.14285714 11,5.14285714 C11.5527345,5.14285714 12,4.63169657 12,4 C12,3.36830343 11.5527345,2.85714286 11,2.85714286 C10.4472655,2.85714286 10,3.36830343 10,4 C10,4.27901771 10.089844,4.53348229 10.234375,4.73214286 L8,6.85714286 L6.375,2.19642857 C6.7402345,2.02678571 7,1.622768 7,1.14285714 C7,0.511160571 6.5527345,0 6,0 Z M2,10.2857143 L2,12 L10,12 L10,10.2857143 L2,10.2857143 Z" id="Shape"></path>
        </g>
    </g>
</svg>