<?xml version="1.0" encoding="UTF-8"?>
<svg width="20px" height="20px" viewBox="0 0 20 20" version="1.1" xmlns="http://www.w3.org/2000/svg" xmlns:xlink="http://www.w3.org/1999/xlink">
    <!-- Generator: Sketch 52.4 (67378) - http://www.bohemiancoding.com/sketch -->
    <title>Artboard</title>
    <desc>Created with Sketch.</desc>
    <g id="Artboard" stroke="none" stroke-width="1" fill="none" fill-rule="evenodd" opacity="0.800000012">
        <g id="Group-4" transform="translate(0.000000, -0.000000)">
            <path d="M9.99724436,1.44095782 C10.0904709,1.44430214 10.185676,1.45412607 10.2764771,1.47362763 C11.0028228,1.62934743 11.5657561,2.27707909 11.6061571,3.08698926 C11.6986815,5.48373645 12.014422,6.90396373 13.5275339,9.04405542 C13.7166037,8.7481251 14.0476409,8.54763324 14.4250785,8.54763324 L18.2545566,8.54763324 C18.8365095,8.54763324 19.3183004,9.02097963 19.3183004,9.5927263 L19.3183004,17.1174414 C19.3183004,17.6891944 18.8365095,18.1625408 18.2545566,18.1625408 L14.4250785,18.1625408 C14.0581506,18.1625408 13.7324748,17.974611 13.540852,17.6922461 C13.319572,17.8674047 13.1148225,18.0247131 12.9026056,18.149477 C12.5517829,18.355696 12.1552617,18.4796657 11.6127948,18.5348679 C10.5279462,18.6452512 8.74764309,18.5636499 4.6386343,18.5805805 C4.54213145,18.5784903 4.44658597,18.5436258 4.37269832,18.4826129 C3.54578634,17.8198945 3.18664511,17.1851639 3.02306257,16.4707967 C2.9425797,16.4464459 2.86981962,16.3980369 2.81697282,16.333617 C2.19857592,15.5742896 1.97480675,14.6982246 2.11888023,13.9429522 C2.05962969,13.9159887 2.00686799,13.875397 1.96597767,13.8253786 C1.24365293,12.9928733 1.09772854,11.9268093 1.35426102,11.1211841 C0.912998765,10.6084374 0.73060923,10.0068992 0.795795458,9.44903141 C0.899744515,8.74285779 1.42185131,8.03317265 2.08564886,7.92057365 L7.56393012,7.92057365 C7.23642463,5.80353684 7.4535135,3.85787543 8.18222064,2.5971094 C8.57565697,1.91647802 9.14935535,1.53560202 9.71801158,1.45402156 C9.81279116,1.44043527 9.90401784,1.437509 9.99724436,1.44106233 L9.99724436,1.44095782 Z M8.92020363,3.00860681 C8.2979347,4.08520543 8.03970023,6.0987983 8.4614747,8.26023093 C8.50827943,8.50133534 8.29244579,8.75715475 8.04261489,8.75665311 L2.20532006,8.75665311 C1.88587775,8.91766111 1.68061772,9.19482145 1.64019546,9.54047133 C1.60109223,9.87527935 1.73969806,10.2689265 2.08564886,10.6378256 L4.42588552,10.6378256 C4.65069716,10.6378256 4.85744643,10.8349941 4.85744643,11.0558654 C4.85744643,11.2767575 4.65067588,11.4770404 4.42588552,11.4739051 L2.13883606,11.4739051 C2.01108041,11.93563 2.10930653,12.5501484 2.53110227,13.146064 L4.42588552,13.146064 C4.65069716,13.146064 4.85744643,13.3432324 4.85744643,13.5641037 C4.85744643,13.7849959 4.65067588,13.9852788 4.42588552,13.9821435 L2.98983121,13.9821435 C2.86207556,14.4438683 2.96030168,15.0583868 3.38209742,15.6543024 L4.42588552,15.6543024 C4.65069716,15.6543024 4.85744643,15.8514708 4.85744643,16.0723421 C4.85744643,16.2932343 4.65067588,16.4935171 4.42588552,16.4903818 L3.89401355,16.4903818 C4.02517318,16.9376217 4.26517508,17.2806024 4.81815173,17.744501 C8.77268362,17.7311238 10.6063229,17.7924084 11.5263763,17.6987884 C11.9954873,17.6510483 12.2157674,17.5833258 12.46379,17.4375136 C12.6873251,17.3061237 12.9609839,17.0743834 13.3613345,16.758199 L13.3613345,10.239392 C11.3842813,7.76895063 10.8529838,5.69187843 10.7551619,3.11965907 C10.4704615,1.83882714 9.32149039,2.19207071 8.92020363,3.00860681 Z M18.2545566,9.3837127 L14.4250785,9.3837127 C14.2998545,9.3837127 14.2123297,9.46970347 14.2123297,9.5927263 L14.2123297,17.1174414 C14.2123297,17.2404705 14.2998545,17.3264613 14.4250785,17.3264613 L18.2545566,17.3264613 C18.3797806,17.3264613 18.4673054,17.2404705 18.4673054,17.1174414 L18.4673054,9.5927263 C18.4673054,9.46970347 18.3797806,9.3837127 18.2545566,9.3837127 Z" id="Shape" fill="#9D9DA5" fill-rule="nonzero" transform="translate(10.050624, 10.016778) scale(1, -1) rotate(5.000000) translate(-10.050624, -10.016778) "></path>
            <polygon id="Path-5" fill="#9D9DA5" transform="translate(16.051922, 6.184222) rotate(5.000000) translate(-16.051922, -6.184222) " points="13.0980912 3.2355229 14.6308222 10.789233 16.450639 10.5246951 19.0057519 9.72066578 18.3353829 6.23168662 17.7251006 1.65822179 16.2232853 1.5792103 13.1428288 2.37857336"></polygon>
            <ellipse id="Oval" fill="#FFFFFF" cx="16.1456295" cy="8.5449901" rx="1.15845949" ry="1.16294412"></ellipse>
        </g>
    </g>
</svg>