<svg xmlns="http://www.w3.org/2000/svg" xmlns:xlink="http://www.w3.org/1999/xlink" width="34" height="29" viewBox="0 0 34 29"><defs><path id="wx0ia" d="M1179.77 2065.05a5.47 5.47 0 0 1-5.38 5.55 5.47 5.47 0 0 1-5.39-5.55 5.52 5.52 0 0 1 4.15-5.4V2045h2.48v14.65a5.52 5.52 0 0 1 4.14 5.4zm-6.62 8.95v-3.4h2.49v3.4z"/><path id="wx0ib" d="M1203 2065.05a5.47 5.47 0 0 1-5.38 5.55 5.47 5.47 0 0 1-5.39-5.55 5.52 5.52 0 0 1 4.14-5.4V2045h2.48v14.65a5.52 5.52 0 0 1 4.15 5.4zm-6.64 8.95v-3.4h2.49v3.4z"/><path id="wx0ic" d="M1191.39 2054.8a5.47 5.47 0 0 1-5.39 5.56 5.47 5.47 0 0 1-5.38-5.55 5.52 5.52 0 0 1 4.14-5.4V2045h2.48v4.41a5.52 5.52 0 0 1 4.15 5.4zm-6.62 19.2v-13.64h2.46V2074z"/><path id="wx0id" d="M1179.77 2065.05a5.47 5.47 0 0 1-5.38 5.55 5.47 5.47 0 0 1-5.39-5.55 5.52 5.52 0 0 1 4.15-5.4V2045h2.48v14.65a5.52 5.52 0 0 1 4.14 5.4zm-6.62 8.95v-3.4h2.49v3.4z"/><clipPath id="wx0ie"><use fill="#fff" xlink:href="#wx0ia"/></clipPath><clipPath id="wx0if"><use fill="#fff" xlink:href="#wx0ib"/></clipPath><clipPath id="wx0ig"><use fill="#fff" xlink:href="#wx0ic"/></clipPath></defs><g><g transform="translate(-1169 -2045)"><g><use fill="#fff" fill-opacity="0" stroke="#95959d" stroke-miterlimit="50" stroke-width="6" clip-path="url(&quot;#wx0ie&quot;)" xlink:href="#wx0id"/></g><g><use fill="#fff" fill-opacity="0" stroke="#95959d" stroke-miterlimit="50" stroke-width="6" clip-path="url(&quot;#wx0if&quot;)" xlink:href="#wx0ib"/></g><g><use fill="#fff" fill-opacity="0" stroke="#95959d" stroke-miterlimit="50" stroke-width="6" clip-path="url(&quot;#wx0ig&quot;)" xlink:href="#wx0ic"/></g></g></g></svg>