<?xml version="1.0" encoding="UTF-8"?>
<svg width="30px" height="30px" viewBox="0 0 30 30" version="1.1" xmlns="http://www.w3.org/2000/svg" xmlns:xlink="http://www.w3.org/1999/xlink">
    <!-- Generator: Sketch 48.2 (47327) - http://www.bohemiancoding.com/sketch -->
    <title>Message</title>
    <desc>Created with Sketch.</desc>
    <defs></defs>
    <g id="Page-1" stroke="none" stroke-width="1" fill="none" fill-rule="evenodd">
        <g id="Message">
            <g id="Group">
                <path d="M15,30 C17.5645642,30 19.978809,29.3564065 22.0900315,28.2219225 C26.7986578,25.6917006 30,20.7197071 30,15 C30,6.71572875 23.2842712,0 15,0 C6.71572875,0 0,6.71572875 0,15 C0,23.2842712 6.71572875,30 15,30 Z" id="Oval" fill="#00BCD5" opacity="0.5"></path>
                <g id="write-email-envelope-button" transform="translate(7.000000, 9.000000)" fill="#FFFFFF" fill-rule="nonzero">
                    <path d="M14.4,0 L1.6,0 C0.72,0 0,0.7 0,1.55555556 L0,10.8888889 C0,11.7444444 0.72,12.4444444 1.6,12.4444444 L14.4,12.4444444 C15.28,12.4444444 16,11.7444444 16,10.8888889 L16,1.55555556 C16,0.7 15.28,0 14.4,0 Z M14.4,3.11111111 L8,7 L1.6,3.11111111 L1.6,1.55555556 L8,5.44444444 L14.4,1.55555556 L14.4,3.11111111 Z" id="Shape"></path>
                </g>
            </g>
        </g>
    </g>
</svg>