<?xml version="1.0" encoding="UTF-8"?>
<svg width="20px" height="20px" viewBox="0 0 20 20" version="1.1" xmlns="http://www.w3.org/2000/svg" xmlns:xlink="http://www.w3.org/1999/xlink">
    <!-- Generator: Sketch 52.4 (67378) - http://www.bohemiancoding.com/sketch -->
    <title>Artboard</title>
    <desc>Created with Sketch.</desc>
    <g id="Artboard" stroke="none" stroke-width="1" fill="none" fill-rule="evenodd">
        <g id="like" transform="translate(9.793047, 9.915202) scale(-1, 1) rotate(-2.000000) translate(-9.793047, -9.915202) translate(-0.206953, 1.343773)">
            <g id="Group">
                <path d="M9.57057886,0.067246149 C9.66643976,0.0704730284 9.76433514,0.0799519865 9.85770218,0.0987687267 C10.6045728,0.249020297 11.1834134,0.874006324 11.2249561,1.65547583 C11.3200951,3.96805926 11.6447577,5.33841408 13.200627,7.40335469 C13.3950396,7.1178162 13.7354311,6.92436478 14.1235343,6.92436478 L18.0612256,6.92436478 C18.6596231,6.92436478 19.1550285,7.38108922 19.1550285,7.93275853 L19.1550285,15.1932371 C19.1550285,15.7449124 18.6596231,16.2016369 18.0612256,16.2016369 L14.1235343,16.2016369 C13.7462379,16.2016369 13.4113591,16.0203064 13.2143214,15.747857 C12.9867885,15.9168648 12.7762533,16.0686491 12.5580396,16.1890319 C12.1973033,16.3880093 11.7895772,16.5076257 11.2317814,16.5608894 C10.1162772,16.6673966 8.28566646,16.5886607 4.06054566,16.6049968 C3.96131584,16.60298 3.86307044,16.5693398 3.78709488,16.5104694 C2.93681609,15.8710229 2.56752628,15.2585814 2.39932123,14.5692998 C2.31656409,14.5458041 2.24174796,14.499095 2.18740782,14.4369372 C1.55153631,13.7042743 1.32144389,12.8589731 1.46958858,12.1302227 C1.40866375,12.104206 1.35441112,12.0650397 1.31236532,12.0167777 C0.56962919,11.2135066 0.419581279,10.1848783 0.683362838,9.40754324 C0.229631429,8.91280213 0.042087947,8.33238737 0.109116202,7.79410961 C0.216002643,7.11273386 0.752863089,6.4279699 1.43541818,6.3193249 L7.06850423,6.3193249 C6.73174412,4.2766296 6.95496746,2.39929169 7.70426635,1.18279851 C8.10882037,0.526068058 8.69873027,0.158566835 9.28345554,0.0798511465 C9.3809134,0.0667419491 9.47471795,0.0639184297 9.57057886,0.067346989 L9.57057886,0.067246149 Z M8.4631032,1.57984585 C7.82325025,2.61863882 7.55771861,4.56152271 7.99141155,6.64705484 C8.03953888,6.87969267 7.81760623,7.12652877 7.56071563,7.12604474 L1.55847103,7.12604474 C1.23000195,7.28139882 1.0189417,7.54882644 0.977377182,7.88233854 C0.937168979,8.2053895 1.07969153,8.58521337 1.43541818,8.94115833 L3.84178503,8.94115833 C4.07294938,8.94115833 4.28554096,9.13140304 4.28554096,9.34451825 C4.28554096,9.55765363 4.07292751,9.75090337 3.84178503,9.74787817 L1.49010833,9.74787817 C1.35874258,10.1933892 1.45974436,10.7863283 1.89345917,11.3613178 L3.84178503,11.3613178 C4.07294938,11.3613178 4.28554096,11.5515626 4.28554096,11.7646778 C4.28554096,11.9778131 4.07292751,12.1710629 3.84178503,12.1680377 L2.36515082,12.1680377 C2.23378507,12.6135487 2.33478685,13.2064878 2.76850166,13.7814774 L3.84178503,13.7814774 C4.07294938,13.7814774 4.28554096,13.9717221 4.28554096,14.1848373 C4.28554096,14.3979727 4.07292751,14.5912224 3.84178503,14.5881972 L3.29488347,14.5881972 C3.4297494,15.0197318 3.67653326,15.3506685 4.24513587,15.798277 C8.31141459,15.7853694 10.1968686,15.844502 11.1429208,15.7541696 C11.625288,15.7081059 11.8517928,15.6427615 12.1068239,15.5020696 C12.3366757,15.3752936 12.6180675,15.151691 13.0297312,14.8466097 L13.0297312,8.55671599 C10.9968106,6.17302626 10.4504997,4.16889216 10.3499136,1.68699841 C10.0571681,0.451143952 8.87572949,0.791983085 8.4631032,1.57984585 Z M18.0612256,7.73108462 L14.1235343,7.73108462 C13.9947718,7.73108462 13.9047737,7.81405576 13.9047737,7.93275853 L13.9047737,15.1932371 C13.9047737,15.3119459 13.9947718,15.394917 14.1235343,15.394917 L18.0612256,15.394917 C18.1899881,15.394917 18.2799862,15.3119459 18.2799862,15.1932371 L18.2799862,7.93275853 C18.2799862,7.81405576 18.1899881,7.73108462 18.0612256,7.73108462 Z" id="Shape" fill="#7AC62D" fill-rule="nonzero"></path>
                <path d="M19.0049041,7.92124887 L19.0049041,9.7027003 L18.2599199,15.5561988 L17.5877317,16.2623598 C15.9684654,16.06427 14.7063616,15.8944497 13.8014204,15.7528989 C12.8964791,15.6113481 12.7484248,15.5713565 13.3572575,15.6329241 L13.2206897,13.0588649 L14.2524666,7.28660064 L15.2435854,7.32300438 L19.0049041,7.92124887 Z" id="Path-4" fill="#7AC62D" transform="translate(15.997429, 11.774480) rotate(-6.000000) translate(-15.997429, -11.774480) "></path>
                <ellipse id="Oval" fill="#FFFFFF" cx="15.6983045" cy="9.40568251" rx="1.27838239" ry="1.27507428"></ellipse>
            </g>
        </g>
    </g>
</svg>