<?xml version="1.0" encoding="UTF-8"?>
<svg width="88px" height="88px" viewBox="0 0 88 88" version="1.1" xmlns="http://www.w3.org/2000/svg" xmlns:xlink="http://www.w3.org/1999/xlink">
    <!-- Generator: Sketch 48.2 (47327) - http://www.bohemiancoding.com/sketch -->
    <title>LOCK FINAL</title>
    <desc>Created with Sketch.</desc>
    <defs></defs>
    <g id="Page-1" stroke="none" stroke-width="1" fill="none" fill-rule="evenodd">
        <g id="LOCK-FINAL">
            <circle id="Oval" fill="#FFFFFF" cx="44" cy="44" r="44"></circle>
            <g id="lock-main" transform="translate(28.000000, 22.000000)" fill="#221300">
                <path d="M29.81417,17.7670785 L29.0125271,17.7670785 L29.0125271,13.7539971 C29.2417559,6.53471571 23.6742132,0.441666051 16.4447703,0 C16.2543801,0 15.8735998,0 15.6832096,0 C8.45376671,0.441666051 2.88622401,6.53471571 3.11545282,13.7539971 L3.11545282,17.7670785 L2.30178526,17.7670785 C0.845586398,18.009711 -0.160135544,19.3537096 0.021111176,20.8148619 L0.021111176,40.9422238 C-0.159812023,42.4033347 0.841109052,43.7488502 2.29577294,44 L29.8201823,44 C31.2716082,43.7451165 32.2681685,42.4007252 32.0868276,40.9422238 L32.0868276,20.8148619 C32.2684673,19.3563366 31.26713,18.0134774 29.81417,17.7670785 Z M18.6332555,30.8575581 L18.6332555,36.9391352 C18.6458134,37.6254117 18.1064891,38.1960772 17.4187665,38.2242006 L14.6891724,38.2242006 C14.0014498,38.1960772 13.4621254,37.6254117 13.4746833,36.9391352 L13.4746833,30.8575581 C12.8119995,30.1551716 12.4484604,29.2237695 12.4606051,28.2594477 C12.3921256,26.385671 13.796165,24.7816314 15.6671767,24.5961119 C15.8575669,24.5961119 16.2383473,24.5961119 16.4287375,24.5961119 C18.2997492,24.7816314 19.7037886,26.385671 19.6353091,28.2594477 C19.6496597,29.2219242 19.2906605,30.1527323 18.6332555,30.8575581 Z M23.6435237,17.7670785 L8.46441514,17.7670785 L8.46441514,13.7539971 C8.28041873,10.9326205 9.68539562,8.24339392 12.1094934,6.77705584 C14.5335912,5.31071776 17.5743476,5.31071776 19.9984454,6.77705584 C22.4225432,8.24339392 23.8275201,10.9326205 23.6435237,13.7539971 L23.6435237,17.7670785 Z" id="Forma_1_copy"></path>
            </g>
        </g>
    </g>
</svg>