<?xml version="1.0" encoding="UTF-8"?>
<svg width="36px" height="35px" viewBox="0 0 36 35" version="1.1" xmlns="http://www.w3.org/2000/svg" xmlns:xlink="http://www.w3.org/1999/xlink">
    <!-- Generator: Sketch 50.2 (55047) - http://www.bohemiancoding.com/sketch -->
    <title>Shape Copy 2</title>
    <desc>Created with Sketch.</desc>
    <defs></defs>
    <g id="V4" stroke="none" stroke-width="1" fill="none" fill-rule="evenodd">
        <g id="01" transform="translate(-494.000000, -101.000000)" fill="#FF5A60" fill-rule="nonzero">
            <path d="M511.361345,101 C509.629446,101.071693 508.191922,102.316155 507.929777,103.970703 C507.667632,105.62525 508.654084,107.227771 510.284571,107.796139 L506.164118,120.272478 L499.703477,114.193728 C500.500687,113.514299 500.953703,112.534537 500.945356,111.50785 C500.861008,109.676239 499.269405,108.249264 497.371433,108.303597 C495.473461,108.357931 493.972208,109.873445 494.00039,111.706664 C494.028573,113.539883 495.57575,115.011706 497.474556,115.011622 C497.571466,115.011622 497.654019,114.959637 497.747339,114.952706 L499.211751,129.03364 L523.50376,129.03364 L524.964583,114.952706 C525.054432,114.97674 525.145474,114.996404 525.237366,115.011622 C526.722019,115.078204 528.09917,114.265592 528.715075,112.959538 C529.330981,111.653484 529.061624,110.11697 528.034871,109.07939 C527.008117,108.04181 525.430711,107.712087 524.051456,108.246742 C522.672202,108.781397 521.768821,110.072775 521.770155,111.50785 C521.762282,112.534441 522.215215,113.514022 523.012034,114.193728 L516.551393,120.272478 L512.434529,107.796139 C514.057346,107.221662 515.036138,105.622586 514.774756,103.972854 C514.513374,102.323123 513.084226,101.079737 511.357756,101 L511.361345,101 Z M522.03364,136 L521.984679,132.537845 L501.00841,132.537845 L501.057371,136 L522.03364,136 Z" id="Shape-Copy-2"></path>
        </g>
    </g>
</svg>