<svg width="318" height="151" xmlns="http://www.w3.org/2000/svg"><g transform="translate(0 -2)" fill="none" fill-rule="evenodd"><path fill="#FFF" fill-rule="nonzero" d="M0 2h318v151H0z"/><path d="M0 152.459h318" stroke="#D6E5EC"/><g opacity=".7" stroke="#D6E5EC"><g transform="scale(-1 1) rotate(20 -448.647 -729.964)"><rect fill="#FFF" x=".5" y=".5" width="31" height="30.086" rx="3"/><path d="M.833 23.268h30.759"/></g><g transform="matrix(-1 0 0 1 296 118.959)"><rect fill="#FFF" x=".5" y=".5" width="34" height="33" rx="3"/><path d="M.911 25.45h33.642"/><circle fill="#FFDCDD" cx="17.5" cy="8.5" r="4.5"/><path d="M9.744 23.491c.447-3.64 1.617-6.084 3.51-7.331 1.03-.773 2.529-1.16 4.496-1.16 2.025.11 3.43.469 4.214 1.075 1.988 1.143 3.282 3.615 3.882 7.416" stroke-linecap="round"/></g></g><text font-family="Roboto-Light, Roboto" font-size="20" font-weight="300" fill="#D6E5EC"><tspan x="260.901" y="19">+</tspan></text><text font-family="Roboto-Light, Roboto" font-size="20" font-weight="300" fill="#D6E5EC"><tspan x="289.727" y="32.257">+</tspan></text><circle stroke="#D6E5EC" fill="#FFF" cx="292.697" cy="50.146" r="3.645"/><g opacity=".7" transform="translate(15 113.459)"><path d="M18.1 6.367v8.386h8.387V6.367H18.1z" stroke="#D6E5EC" fill="#FFF"/><path d="M17.08.5a2.5 2.5 0 0 0-2.5 2.5v2.213a2.5 2.5 0 0 0 2.5 2.5h9.84a2.5 2.5 0 0 0 2.5-2.5V3a2.5 2.5 0 0 0-2.5-2.5h-9.84z" stroke="#D6E5EC" fill="#FFF"/><rect stroke="#D6E5EC" fill="#FFF" x=".5" y="10.473" width="43" height="28.333" rx="3"/><path stroke="#D6E5EC" fill="#FFF" d="M.5 18.687h43V31.18H.5z"/><circle stroke="#DCE9EF" fill="#FFF" cx="22.293" cy="25.227" r="8.887"/><circle stroke="#D6E5EC" fill="#FFF" cx="4.987" cy="14.373" r="1.553"/><circle stroke="#D6E5EC" fill="#FFF" cx="10.267" cy="14.373" r="1.553"/><rect stroke="#D6E5EC" fill="#FFF" x="34.527" y="13.407" width="6.04" height="2.52" rx="1.26"/><circle stroke="#D6E5EC" fill="#FEE" cx="22.293" cy="25.227" r="6.833"/><path d="M6.775.278l5.102 1.564M6.775 7.709l5.102-1.564M6.503 4.107h4.523M37.93.278l-5.102 1.564M37.93 7.709l-5.102-1.564M37.93 4.107h-4.37" stroke="#D6E5EC" stroke-linecap="round" stroke-linejoin="round"/><path d="M17.79 23.813c.183-2.272 1.508-3.545 3.975-3.818" stroke="#FFF" stroke-linecap="round"/></g><text font-family="Roboto-Light, Roboto" font-size="20" font-weight="300" fill="#D6E5EC"><tspan x="38.901" y="21">+</tspan></text><text font-family="Roboto-Light, Roboto" font-size="20" font-weight="300" fill="#D6E5EC"><tspan x="15.727" y="55.257">+</tspan></text><circle stroke="#D6E5EC" fill="#FFF" cx="19.697" cy="21.146" r="3.645"/></g></svg>