<?xml version="1.0" encoding="UTF-8"?>
<svg width="15px" height="15px" viewBox="0 0 15 15" version="1.1" xmlns="http://www.w3.org/2000/svg" xmlns:xlink="http://www.w3.org/1999/xlink">
    <!-- Generator: Sketch 50.2 (55047) - http://www.bohemiancoding.com/sketch -->
    <title>planet</title>
    <desc>Created with Sketch.</desc>
    <defs></defs>
    <g id="Final" stroke="none" stroke-width="1" fill="none" fill-rule="evenodd">
        <g id="Horoscope-match_final" transform="translate(-808.000000, -866.000000)" fill="#B1B3B9" fill-rule="nonzero">
            <g id="Op1-Copy-5" transform="translate(808.000000, 866.000000)">
                <g id="planet">
                    <path d="M14.6560922,0.345901094 C14.266908,-0.0431929502 13.6684147,-0.105317209 12.8802349,0.166067712 C12.5335666,0.283776835 12.141112,0.466879915 11.6996005,0.715376952 C11.4346936,0.865783053 11.150164,1.03580734 10.855823,1.23198921 C10.7773321,1.28430438 10.6988412,1.33661954 10.6170798,1.39220441 C11.0684026,1.62108326 11.4902914,1.89900758 11.8794756,2.22597736 C11.9710483,2.1703925 12.0560802,2.11480763 12.141112,2.06576217 C12.8867758,1.62108326 13.3544509,1.45105897 13.5997351,1.4020135 C13.534326,1.73225298 13.2497964,2.4744744 12.3602325,3.75619596 C12.2882825,3.85755659 12.2163325,3.96218692 12.141112,4.06681725 C11.9743188,3.8412081 11.7879028,3.62213834 11.5818641,3.41941708 C9.32852036,1.16659526 5.67215123,1.16659526 3.41880747,3.41941708 C1.1654637,5.6722389 1.1654637,9.3277611 3.41880747,11.5805829 C3.62484616,11.7865739 3.84069621,11.9729467 4.06635763,12.1397013 C3.96170306,12.2149043 3.85704849,12.2868377 3.75566437,12.358771 C2.47364586,13.2448591 1.73125248,13.5325925 1.40093649,13.5979865 C1.44018195,13.3985349 1.5611888,13.0421379 1.85225933,12.5059074 C1.95364345,12.3195346 2.0746503,12.110274 2.22182079,11.8781254 C1.89804571,11.4890314 1.620057,11.0672404 1.38785467,10.6160221 C1.33225693,10.6944948 1.27992964,10.7762373 1.22760235,10.85471 C0.956154557,11.2666919 0.730493135,11.6492466 0.550618089,11.9991042 C0.383824864,12.3195346 0.256277103,12.6138074 0.164704353,12.878653 C-0.103472989,13.6666502 -0.0446047924,14.2650049 0.344579399,14.6540989 C0.73376359,15.043193 1.33225693,15.1053172 2.12043668,14.8339323 C2.67641409,14.6442898 3.35666881,14.284623 4.14484856,13.7680108 C5.70158533,12.7445954 7.55920399,11.1849495 9.37103628,9.37353687 C11.1828686,7.56212426 12.7461462,5.70493588 13.7665283,4.1485597 C14.2832603,3.36056252 14.6430104,2.68046536 14.8326968,2.12461673 C15.1041446,1.33334985 15.0452764,0.738264837 14.6560922,0.345901094 Z" id="XMLID_40_"></path>
                    <path d="M9.98503968,9.98568871 C8.83653643,11.1344098 7.66834456,12.184669 6.5625,13.0741073 C8.28853631,13.3038515 10.1031714,12.7557475 11.4288723,11.4297952 C12.7578547,10.1005608 13.3058548,8.28886363 13.0728727,6.5625 C12.183603,7.66855426 11.1335429,8.83696767 9.98503968,9.98568871 Z" id="XMLID_39_"></path>
                </g>
            </g>
        </g>
    </g>
</svg>