<?xml version="1.0" encoding="UTF-8"?>
<svg width="20px" height="18px" viewBox="0 0 20 18" version="1.1" xmlns="http://www.w3.org/2000/svg" xmlns:xlink="http://www.w3.org/1999/xlink">
    <!-- Generator: Sketch 48.2 (47327) - http://www.bohemiancoding.com/sketch -->
    <title>printer-printing-document</title>
    <desc>Created with Sketch.</desc>
    <defs></defs>
    <g id="Page-1" stroke="none" stroke-width="1" fill="none" fill-rule="evenodd">
        <g id="printer-printing-document" fill="#CDCED1" fill-rule="nonzero">
            <path d="M17,4.97076023 L3,4.97076023 C1.3,4.97076023 0,6.26315789 0,7.95321637 L0,13.9181287 L4,13.9181287 L4,17.8947368 L16,17.8947368 L16,13.9181287 L20,13.9181287 L20,7.95321637 C20,6.26315789 18.7,4.97076023 17,4.97076023 Z M14,15.9064327 L6,15.9064327 L6,10.9356725 L14,10.9356725 L14,15.9064327 Z M17,8.94736842 C16.4,8.94736842 16,8.5497076 16,7.95321637 C16,7.35672515 16.4,6.95906433 17,6.95906433 C17.6,6.95906433 18,7.35672515 18,7.95321637 C18,8.5497076 17.6,8.94736842 17,8.94736842 Z M16,0 L4,0 L4,3.97660819 L16,3.97660819 L16,0 Z" id="Shape"></path>
        </g>
    </g>
</svg>