<?xml version="1.0" encoding="UTF-8"?>
<svg width="22px" height="26px" viewBox="0 0 22 26" version="1.1" xmlns="http://www.w3.org/2000/svg" xmlns:xlink="http://www.w3.org/1999/xlink">
    <!-- Generator: Sketch 49 (51002) - http://www.bohemiancoding.com/sketch -->
    <title>Group 2</title>
    <desc>Created with Sketch.</desc>
    <defs></defs>
    <g id="Page-1" stroke="none" stroke-width="1" fill="none" fill-rule="evenodd">
        <g id="Group-10" transform="translate(-577.000000, -14.000000)" fill="#FFFFFF">
            <g id="Group-8" transform="translate(520.000000, 0.000000)">
                <g id="Group-2" transform="translate(57.000000, 14.000000)">
                    <path d="M10,18.7324356 L10,23 L12,23 L12,18.7324356 C12.5978014,18.3866262 13,17.7402824 13,17 C13,15.8954305 12.1045695,15 11,15 C9.8954305,15 9,15.8954305 9,17 C9,17.7402824 9.40219863,18.3866262 10,18.7324356 Z M3,11 L19,11 C20.6568542,11 22,12.3431458 22,14 L22,23 C22,24.6568542 20.6568542,26 19,26 L3,26 C1.34314575,26 2.02906125e-16,24.6568542 0,23 L0,14 C-2.02906125e-16,12.3431458 1.34314575,11 3,11 Z" id="Combined-Shape"></path>
                    <path d="M19,11 L15.8999819,11 C15.9655697,10.6768901 16,10.3424658 16,10 L16,8 C16,5.23857625 13.7614237,3 11,3 C8.23857625,3 6,5.23857625 6,8 L6,10 C6,10.3424658 6.03443026,10.6768901 6.10001812,11 L3,11 L3,8 C3,3.581722 6.581722,8.11624501e-16 11,0 C15.418278,-8.11624501e-16 19,3.581722 19,8 L19,11 Z" id="Combined-Shape"></path>
                </g>
            </g>
        </g>
    </g>
</svg>