<?xml version="1.0" encoding="UTF-8"?>
<svg width="37px" height="33px" viewBox="0 0 37 33" version="1.1" xmlns="http://www.w3.org/2000/svg" xmlns:xlink="http://www.w3.org/1999/xlink">
    <!-- Generator: Sketch 49 (51002) - http://www.bohemiancoding.com/sketch -->
    <title>Group</title>
    <desc>Created with Sketch.</desc>
    <defs></defs>
    <g id="Page-1" stroke="none" stroke-width="1" fill="none" fill-rule="evenodd">
        <g id="Group-10" transform="translate(-331.000000, -13.000000)">
            <g id="Group-7" transform="translate(289.000000, 0.000000)">
                <g id="Group" transform="translate(42.000000, 13.000000)">
                    <circle id="Oval" stroke="#FFFFFF" stroke-width="2" cx="24.5" cy="20.5" r="11.5"></circle>
                    <path d="M6.31720361,9.63368011 L7.51194334,11.2581507 C4.22959756,13.0334505 2,16.50635 2,20.5 C2,26.2989899 6.70101013,31 12.5,31 C18.2989899,31 23,26.2989899 23,20.5 C23,15.845089 19.9709305,11.8976552 15.7763584,10.5212654 L16.6952117,8.72140222 C21.5352632,10.4454209 25,15.0680941 25,20.5 C25,27.4035594 19.4035594,33 12.5,33 C5.59644063,33 0,27.4035594 0,20.5 C0,15.845549 2.54391557,11.7852614 6.31720361,9.63368011 Z" id="Combined-Shape" fill="#FFFFFF"></path>
                    <path d="M14.8223011,0.054241657 L13.6663408,1.5882528 L12.5103805,0.054241657 L14.8223011,0.054241657 Z M16.3344302,0.054241657 L16.9988373,0.054241657 L18,1.83033586 L18,2.31959565 L14.6273636,2.31959565 L16.3344302,0.054241657 Z M10.29623,0.054241657 L10.9982513,0.054241657 L12.705318,2.31959565 L8.5891633,2.31959565 L10.29623,0.054241657 Z M8.78410081,0.054241657 L7.6281405,1.5882528 L6.47218019,0.054241657 L8.78410081,0.054241657 Z M12.2406219,11.3708238 L15.8981471,3.5272357 L18,3.5272357 L18,4.44827566 L12.8751703,11.3708238 L12.2406219,11.3708238 Z M14.5656637,3.5272357 L10.9578228,11.2642755 L7.34998192,3.5272357 L14.5656637,3.5272357 Z M9.67502373,11.3708238 L9.14136788,11.3708238 L4,4.44827566 L4,3.5272357 L6.01749855,3.5272357 L9.67502373,11.3708238 Z M5.0365678,0.155782864 L6.66711769,2.31959565 L4,2.31959565 L4,1.99330065 L5.0365678,0.155782864 Z" id="Combined-Shape" fill="#FFFFFF"></path>
                </g>
            </g>
        </g>
    </g>
</svg>