<?xml version="1.0" encoding="UTF-8"?>
<svg width="29px" height="34px" viewBox="0 0 29 34" version="1.1" xmlns="http://www.w3.org/2000/svg" xmlns:xlink="http://www.w3.org/1999/xlink">
    <!-- Generator: Sketch 49 (51002) - http://www.bohemiancoding.com/sketch -->
    <title>Combined Shape</title>
    <desc>Created with Sketch.</desc>
    <defs></defs>
    <g id="Page-1" stroke="none" stroke-width="1" fill="none" fill-rule="evenodd">
        <g id="Group-10" transform="translate(-94.000000, -13.000000)" fill="#FFFFFF">
            <g id="Group-6">
                <path d="M108.471622,46.9030788 C106.399603,46.590669 94,38.4092562 94,34.3711225 C94,31.6790334 94,25.8717652 94,16.949318 C101.887091,16.5251234 106.710965,15.208684 108.471622,13 C110.308003,15.6328786 115.131876,16.949318 122.943243,16.949318 C122.943243,24.844198 122.943243,30.3152036 122.943243,33.3623348 C122.943243,37.9330315 111.505355,46.0363268 108.471622,46.9030788 Z M108.5,32.75 L112.320604,34.7586105 L111.590934,30.5043052 L114.681867,27.4913895 L110.410302,26.8706948 L108.5,23 L106.589698,26.8706948 L102.318133,27.4913895 L105.409066,30.5043052 L104.679396,34.7586105 L108.5,32.75 Z" id="Combined-Shape"></path>
            </g>
        </g>
    </g>
</svg>