<svg xmlns="http://www.w3.org/2000/svg" xmlns:xlink="http://www.w3.org/1999/xlink" width="95" height="95.17" viewBox="0 0 95 95.17"><defs><path id="vrn2a" d="M362.5 1081.5a43.94 43.94 0 0 1-43.85-43.92 43.94 43.94 0 0 1 43.85-43.92 43.94 43.94 0 0 1 43.85 43.92 43.94 43.94 0 0 1-43.85 43.93zm0-91.5a47.6 47.6 0 0 0 0 95.17 47.6 47.6 0 0 0 0-95.17z"/><path id="vrn2b" d="M385.19 1034.86H364.3v-20a1.82 1.82 0 1 0-3.62 0v20H339.8a1.82 1.82 0 0 0 0 3.63h20.88v21.82a1.82 1.82 0 1 0 3.62 0v-21.82h20.88a1.82 1.82 0 0 0 0-3.63z"/></defs><g><g transform="translate(-315 -990)"><g><use fill="#00bbd5" xlink:href="#vrn2a"/></g><g><use fill="#00bbd5" xlink:href="#vrn2b"/></g></g></g></svg>