<?xml version="1.0" encoding="UTF-8"?>
<svg width="20px" height="19px" viewBox="0 0 20 19" version="1.1" xmlns="http://www.w3.org/2000/svg" xmlns:xlink="http://www.w3.org/1999/xlink">
    <!-- Generator: Sketch 48.2 (47327) - http://www.bohemiancoding.com/sketch -->
    <title>share-symbol</title>
    <desc>Created with Sketch.</desc>
    <defs></defs>
    <g id="Page-1" stroke="none" stroke-width="1" fill="none" fill-rule="evenodd">
        <g id="share-symbol" fill="#CDCED1" fill-rule="nonzero">
            <path d="M19.7732819,4.78578367 L15.1917373,0.225604821 C15.0404107,0.075160013 14.8612094,0 14.6545512,0 C14.5594758,0 14.4597616,0.0197986531 14.3564952,0.059271178 C14.0461526,0.193910338 13.8909813,0.427459576 13.8909813,0.759960486 L13.8909813,3.04017469 L11.9818267,3.04017469 C11.1387279,3.04017469 10.3570206,3.08372341 9.63728983,3.17077925 C8.9174755,3.2577935 8.28308271,3.37845714 7.73423682,3.53297814 C7.18534914,3.68720799 6.69016336,3.8792882 6.24867947,4.10888602 C5.80727916,4.33840066 5.43144949,4.58189082 5.12114867,4.83923172 C4.81080605,5.09653102 4.53845178,5.38951781 4.30379331,5.71806731 C4.06900947,6.04657522 3.88220211,6.3691352 3.74286972,6.68583047 C3.60378809,7.00260892 3.49245591,7.35091547 3.4088732,7.73087492 C3.3252069,8.11091755 3.26958261,8.46712694 3.24174957,8.79954466 C3.21391652,9.13204557 3.2,9.49237274 3.2,9.88011022 C3.2,10.323625 3.26970798,10.8064459 3.4088732,11.3291553 C3.54808021,11.851532 3.70120374,12.3027416 3.86824379,12.6828259 C4.03524205,13.0625773 4.23220472,13.4565955 4.45892283,13.8642148 C4.68559915,14.2719173 4.84265106,14.542901 4.93016217,14.6775818 C5.01763147,14.8119298 5.10129777,14.9349227 5.18078493,15.045687 C5.26031388,15.1485901 5.3637057,15.2 5.49091859,15.2 C5.52288898,15.2 5.57040575,15.1922636 5.63413757,15.1763747 C5.81705834,15.0892357 5.8965455,14.9548877 5.87268263,14.7727068 C5.51478145,12.1126163 5.80915977,10.2401046 6.75565042,9.15558766 C7.6705468,8.11848763 9.41253591,7.59985442 11.9817014,7.59985442 L13.8909813,7.59985442 L13.8909813,9.87986066 C13.8909813,10.2126527 14.0460272,10.4460772 14.3563698,10.5807579 C14.4596363,10.6203137 14.5591833,10.6399875 14.6544258,10.6399875 C14.8692334,10.6399875 15.0483093,10.5648275 15.1916119,10.4145075 L19.7733237,5.85428704 C19.9243159,5.70375904 20,5.52577913 20,5.31993137 C19.9999582,5.11424998 19.9242741,4.93597892 19.7732819,4.78578367 Z" id="Shape"></path>
            <path d="M16.5492512,11.5271663 C16.3977572,11.4632663 16.2587588,11.495279 16.1316292,11.6225777 C15.924845,11.8134839 15.7098697,11.960801 15.4872048,12.0640693 C15.3437348,12.1435578 15.2723549,12.2588204 15.2723549,12.4099823 L15.2723549,14.9636459 C15.2723549,15.488638 15.0857143,15.9377358 14.7117225,16.3118585 C14.3378979,16.6857305 13.8882636,16.8726665 13.3633628,16.8726665 L3.43617747,16.8726665 C2.91110956,16.8726665 2.4616842,16.6857305 2.08781779,16.3118585 C1.71390959,15.9377358 1.52705997,15.4886798 1.52705997,14.9636459 L1.52705997,5.03614518 C1.52705997,4.51111122 1.71390959,4.06184631 2.08781779,3.68797433 C2.4616424,3.31406055 2.91106777,3.12720814 3.43617747,3.12720814 L4.77254301,3.12720814 C4.82022707,3.12720814 4.88395904,3.11120177 4.9634464,3.07943979 C5.40894337,2.80891962 5.93773072,2.57020324 6.55035174,2.36341601 C6.75717768,2.32371353 6.86056976,2.19649842 6.86056976,1.98160352 C6.86056976,1.87820991 6.82283207,1.78890022 6.74723132,1.71317296 C6.67163056,1.63778004 6.58232221,1.6 6.47880476,1.6 L3.43634464,1.6 C2.48976806,1.6 1.68035105,1.93609194 1.0081772,2.60823404 C0.336086926,3.28033434 0,4.08976343 0,5.03635414 L0,14.9635205 C0,15.910153 0.336086926,16.7195403 1.00821899,17.3917242 C1.68039284,18.0639081 2.48980985,18.4 3.43638643,18.4 L13.3635718,18.4 C14.310023,18.4 15.1195236,18.0639081 15.7916974,17.3917242 C16.4639131,16.7195403 16.8,15.9101948 16.8,14.9635205 L16.8,11.873163 C16.7999582,11.7141023 16.7164171,11.5988398 16.5492512,11.5271663 Z" id="Shape"></path>
        </g>
    </g>
</svg>