<?xml version="1.0" encoding="UTF-8"?>
<svg width="46px" height="55px" viewBox="0 0 46 55" version="1.1" xmlns="http://www.w3.org/2000/svg" xmlns:xlink="http://www.w3.org/1999/xlink">
    <!-- Generator: Sketch 49.1 (51147) - http://www.bohemiancoding.com/sketch -->
    <title>tag2</title>
    <desc>Created with Sketch.</desc>
    <defs>
        <filter x="-23.6%" y="-14.4%" width="144.4%" height="133.3%" filterUnits="objectBoundingBox" id="filter-1">
            <feOffset dx="0" dy="1" in="SourceAlpha" result="shadowOffsetOuter1"></feOffset>
            <feGaussianBlur stdDeviation="2" in="shadowOffsetOuter1" result="shadowBlurOuter1"></feGaussianBlur>
            <feColorMatrix values="0 0 0 0 0   0 0 0 0 0   0 0 0 0 0  0 0 0 0.24 0" type="matrix" in="shadowBlurOuter1" result="shadowMatrixOuter1"></feColorMatrix>
            <feMerge>
                <feMergeNode in="shadowMatrixOuter1"></feMergeNode>
                <feMergeNode in="SourceGraphic"></feMergeNode>
            </feMerge>
        </filter>
        <path d="M24.4549389,4.21572203 C22.8488142,4.19472836 20.5112254,3.95109131 17.9270509,2.90858992 C15.9222976,2.09978121 14.3880476,1.06004215 13.3093732,0.184385182 C13.0063934,-0.0614617273 12.5701688,-0.0614617273 12.2677418,0.184385182 C11.1885145,1.06004215 9.65426452,2.09978121 7.65006413,2.90858992 C5.0658896,3.95109131 2.72774795,4.19472836 1.1221761,4.21572203 C0.731840798,4.22069421 0.405087023,4.50963339 0.348140088,4.89525394 C-0.152771791,8.28020678 -1.10483609,18.7411309 5.81338724,27.0352874 C7.85297214,29.4804973 10.1137102,31.1820894 12.1029827,32.363812 C12.5259381,32.6151835 13.0500711,32.6151835 13.4730265,32.363812 C15.4628519,31.1826419 17.7230371,29.4810498 19.762622,27.0352874 C26.6819511,18.7411309 25.7293339,8.28020678 25.2289749,4.89525394 C25.1714751,4.50963339 24.8447213,4.22069421 24.4549389,4.21572203" id="path-2"></path>
    </defs>
    <g id="Website" stroke="none" stroke-width="1" fill="none" fill-rule="evenodd">
        <g id="ProfilePg2" transform="translate(-82.000000, -557.000000)">
            <g id="tag2" filter="url(#filter-1)" transform="translate(87.000000, 561.000000)">
                <g id="Group">
                    <path d="M24.674654,4.00638892 C21.9153271,2.89230879 19.8035974,1.46013747 18.3189182,0.253978309 C17.9018991,-0.0846594363 17.301483,-0.0846594363 16.8852249,0.253978309 C15.3997847,1.46013747 13.2880549,2.89230879 10.529489,4.00638892 C6.97265124,5.44236516 3.75445119,5.77795897 1.54455453,5.80687635 C1.00730004,5.8137252 0.557558674,6.21171967 0.479177353,6.74288629 C-0.210273876,11.4054334 -1.5206878,25.8146597 8.0015012,37.239308 C10.8087701,40.6074218 13.9204324,42.9512516 16.6584517,44.5789957 C17.2406043,44.9252433 17.9620168,44.9252433 18.5441693,44.5789957 C21.2829497,42.9520126 24.393851,40.6081828 27.2011199,37.239308 C36.7248308,25.8146597 35.4136559,11.4054334 34.7249657,6.74288629 C34.6458234,6.21171967 34.196082,5.8137252 33.6595885,5.80687635 C31.4489309,5.77795897 28.2314918,5.44236516 24.674654,4.00638892 Z" id="Shape" stroke="#89CC64" stroke-width="2" fill="#FFFFFF" fill-rule="nonzero"></path>
                    <g id="Path-2" transform="translate(4.967867, 5.677950)">
                        <mask id="mask-3" fill="white">
                            <use xlink:href="#path-2"></use>
                        </mask>
                        <use id="Mask" fill="#89CC64" fill-rule="nonzero" xlink:href="#path-2"></use>
                    </g>
                </g>
            </g>
        </g>
    </g>
</svg>