<?xml version="1.0" encoding="UTF-8"?>
<svg width="61px" height="67px" viewBox="0 0 61 67" version="1.1" xmlns="http://www.w3.org/2000/svg" xmlns:xlink="http://www.w3.org/1999/xlink">
    <!-- Generator: Sketch 48.2 (47327) - http://www.bohemiancoding.com/sketch -->
    <title>tag_green</title>
    <desc>Created with Sketch.</desc>
    <defs></defs>
    <g id="Page-1" stroke="none" stroke-width="1" fill="none" fill-rule="evenodd">
        <g id="tag_green" fill-rule="nonzero">
            <path d="M59.1724141,12.576326 C59.1510951,11.7296612 58.4856352,10.9993379 57.5561614,10.8836036 C53.223725,10.3411967 48.9508676,9.39753716 44.7622397,7.99909567 C40.5934081,6.60733447 35.9807779,4.66449067 31.0057236,2.10566977 C30.3740506,1.78059003 29.7798765,1.77859461 29.1488698,2.10566977 C24.2082685,4.66318931 19.628664,6.60195551 15.426902,7.99909567 C11.2369416,9.39224499 6.96617815,10.3418908 2.66819479,10.8836036 C1.73862586,11.0006393 1.08639529,11.7296612 0.982940656,12.576326 C0.570644904,28.6581866 4.43491826,41.8166718 12.5384523,52.0451883 C16.9530244,57.616918 22.4776162,62.1393177 29.1488698,65.5876616 C29.6646203,65.9327823 30.4732224,65.9066683 31.074725,65.5876616 C37.695441,62.0817976 43.2127043,57.5921922 47.6170928,52.0451883 C55.7313816,41.8233521 59.5641522,28.6587938 59.1724141,12.576326 Z" id="Shape" fill="#89C965"></path>
            <path d="M60.9714737,11.2217523 C60.9491468,10.3350633 60.2522289,9.5702157 59.2788164,9.44901028 C54.7415738,8.8809624 50.2667268,7.89269348 45.8800911,6.42814383 C41.5141874,4.97059028 36.6835057,2.93590295 31.4732668,0.256119615 C30.8117331,-0.0843275321 30.1894707,-0.0864172797 29.5286346,0.256119615 C24.3544776,2.93454007 19.5583826,4.96495705 15.1579919,6.42814383 C10.7699607,7.88715111 6.29730657,8.88168927 1.79614582,9.44901028 C0.822633624,9.57157859 0.139570344,10.3350633 0.0312251245,11.2217523 C-0.400560973,28.0638462 3.64638713,41.844369 12.1329973,52.5564155 C16.7562583,58.391536 22.5420126,63.1277218 29.5286346,66.7390783 C30.0687659,67.1005138 30.9155929,67.0731654 31.5455302,66.7390783 C38.4792255,63.0674826 44.257305,58.3656412 48.8699008,52.5564155 C57.3677742,41.8513651 61.3817303,28.0644823 60.9714737,11.2217523 Z M45.6280165,50.4881104 C41.6186454,55.5365772 36.5882177,59.7461467 30.5013494,63.127631 C24.4143814,59.7460558 19.3601318,55.5520232 15.3745827,50.4881104 C7.65406381,40.678835 3.88530478,28.1296278 4.02893445,12.8305854 C8.27871836,12.2065686 12.4932178,11.1558799 16.7069198,9.7439373 C20.9206219,8.33263079 25.5308256,6.39525301 30.5013494,3.93334858 C35.4718732,6.39525301 40.0457957,8.33263079 44.2595974,9.7439373 C48.4732994,11.1559707 52.7230834,12.2065686 56.9736647,12.8305854 C57.117394,28.2283911 53.3247133,40.795134 45.6280165,50.4881104 Z" id="Shape-Copy" fill="#FFFFFF"></path>
        </g>
    </g>
</svg>