<?xml version="1.0" encoding="UTF-8"?>
<svg width="22px" height="25px" viewBox="0 0 22 25" version="1.1" xmlns="http://www.w3.org/2000/svg" xmlns:xlink="http://www.w3.org/1999/xlink">
    <!-- Generator: Sketch 48.2 (47327) - http://www.bohemiancoding.com/sketch -->
    <title>Group</title>
    <desc>Created with Sketch.</desc>
    <defs></defs>
    <g id="Page-1" stroke="none" stroke-width="1" fill="none" fill-rule="evenodd">
        <g id="Group">
            <g id="Group-2-Copy-2">
                <g id="security-badge"></g>
                <path d="M21.9897118,4.16537465 C21.9816595,3.83624674 21.7303121,3.55234482 21.3792452,3.5073549 C19.7428627,3.29650259 18.1289834,2.92966948 16.5469181,2.3860469 C14.9723299,1.84502118 13.2301168,1.0897706 11.3510143,0.0950684101 C11.1124283,-0.0313013292 10.8880058,-0.0320770175 10.6496715,0.0950684101 C8.78358208,1.08926471 7.05384291,1.8429302 5.46681674,2.3860469 C3.88424811,2.92761222 2.27115975,3.2967724 0.647790294,3.5073549 C0.296687536,3.55285071 0.0503368452,3.83624674 0.0112615203,4.16537465 C-0.144464613,10.4169501 1.31509044,15.5321084 4.37583511,19.5082866 C6.04324069,21.6742106 8.12990618,23.4322238 10.6496715,24.7727143 C10.844473,24.9068747 11.149886,24.8967233 11.3770765,24.7727143 C13.8777535,23.4098637 15.961651,21.6645988 17.6252101,19.5082866 C20.6900169,15.5347053 22.1376732,10.4171861 21.9897118,4.16537465 Z" id="Shape" fill="#89C965" fill-rule="nonzero"></path>
                <path d="M21.9897118,4.16537465 C21.9816595,3.83624674 21.7303121,3.55234482 21.3792452,3.5073549 C19.7428627,3.29650259 18.1289834,2.92966948 16.5469181,2.3860469 C14.9723299,1.84502118 13.2301168,1.0897706 11.3510143,0.0950684101 C11.1124283,-0.0313013292 10.8880058,-0.0320770175 10.6496715,0.0950684101 C8.78358208,1.08926471 7.05384291,1.8429302 5.46681674,2.3860469 C3.88424811,2.92761222 2.27115975,3.2967724 0.647790294,3.5073549 C0.296687536,3.55285071 0.0503368452,3.83624674 0.0112615203,4.16537465 C-0.144464613,10.4169501 1.31509044,15.5321084 4.37583511,19.5082866 C6.04324069,21.6742106 8.12990618,23.4322238 10.6496715,24.7727143 C10.844473,24.9068747 11.149886,24.8967233 11.3770765,24.7727143 C13.8777535,23.4098637 15.961651,21.6645988 17.6252101,19.5082866 C20.6900169,15.5347053 22.1376732,10.4171861 21.9897118,4.16537465 Z" id="Shape-Copy" fill="#89C965" fill-rule="nonzero"></path>
                <g id="checked-(3)" transform="translate(5.739130, 6.695652)" fill="#FFFFFF" fill-rule="nonzero">
                    <path d="M0.132441472,5.26086957 C0.0441471572,5.16521739 0,5.02173913 0,4.92608696 C0,4.83043478 0.0441471572,4.68695652 0.132441472,4.59130435 L0.750501672,3.92173913 C0.927090301,3.73043478 1.19197324,3.73043478 1.36856187,3.92173913 L1.41270903,3.96956522 L3.84080268,6.79130435 C3.92909699,6.88695652 4.06153846,6.88695652 4.14983278,6.79130435 L10.0655518,0.143478261 L10.109699,0.143478261 C10.2862876,-0.047826087 10.5511706,-0.047826087 10.7277592,0.143478261 L11.3458194,0.813043478 C11.522408,1.00434783 11.522408,1.29130435 11.3458194,1.4826087 L4.28227425,9.42173913 C4.19397993,9.5173913 4.10568562,9.56521739 3.97324415,9.56521739 C3.84080268,9.56521739 3.75250836,9.5173913 3.66421405,9.42173913 L0.220735786,5.40434783 L0.132441472,5.26086957 Z" id="Shape"></path>
                </g>
            </g>
        </g>
    </g>
</svg>