<?xml version="1.0" encoding="UTF-8"?>
<svg width="61px" height="67px" viewBox="0 0 61 67" version="1.1" xmlns="http://www.w3.org/2000/svg" xmlns:xlink="http://www.w3.org/1999/xlink">
    <!-- Generator: Sketch 48.2 (47327) - http://www.bohemiancoding.com/sketch -->
    <title>Group 2 Copy 3</title>
    <desc>Created with Sketch.</desc>
    <defs></defs>
    <g id="Page-1" stroke="none" stroke-width="1" fill="none" fill-rule="evenodd">
        <g id="Group-2-Copy-3">
            <g id="security-badge"></g>
            <path d="M60.9714737,11.2217523 C60.9491468,10.3350633 60.2522289,9.57021569 59.2788164,9.44901032 C54.7415737,8.8809624 50.2667268,7.89269349 45.8800911,6.42814383 C41.5141874,4.97059028 36.6835057,2.93590295 31.4732668,0.256119615 C30.811733,-0.084327532 30.1894707,-0.0864172797 29.5286346,0.256119615 C24.3544776,2.93454007 19.5583826,4.96495705 15.1579919,6.42814383 C10.7699607,7.88715111 6.29730657,8.88168927 1.79614582,9.44901032 C0.822633623,9.57157856 0.139570343,10.3350633 0.0312251245,11.2217523 C-0.400560973,28.0638462 3.64638712,41.844369 12.1329974,52.5564154 C16.7562583,58.391536 22.5420126,63.1277218 29.5286346,66.7390783 C30.0687659,67.1005138 30.9155929,67.0731654 31.5455302,66.7390783 C38.4792255,63.0674826 44.2573049,58.3656413 48.8699008,52.5564154 C57.3677741,41.8513651 61.3817303,28.0644823 60.9714737,11.2217523 Z" id="Shape" fill="#FFFFFF" fill-rule="nonzero"></path>
            <path d="M60.9714737,11.2217523 C60.9491468,10.3350633 60.2522289,9.57021569 59.2788164,9.44901032 C54.7415737,8.8809624 50.2667268,7.89269349 45.8800911,6.42814383 C41.5141874,4.97059028 36.6835057,2.93590295 31.4732668,0.256119615 C30.811733,-0.084327532 30.1894707,-0.0864172797 29.5286346,0.256119615 C24.3544776,2.93454007 19.5583826,4.96495705 15.1579919,6.42814383 C10.7699607,7.88715111 6.29730657,8.88168927 1.79614582,9.44901032 C0.822633623,9.57157856 0.139570343,10.3350633 0.0312251245,11.2217523 C-0.400560973,28.0638462 3.64638712,41.844369 12.1329974,52.5564154 C16.7562583,58.391536 22.5420126,63.1277218 29.5286346,66.7390783 C30.0687659,67.1005138 30.9155929,67.0731654 31.5455302,66.7390783 C38.4792255,63.0674826 44.2573049,58.3656413 48.8699008,52.5564154 C57.3677741,41.8513651 61.3817303,28.0644823 60.9714737,11.2217523 Z M45.6280165,50.4881104 C41.6186453,55.5365773 36.5882177,59.7461467 30.5013494,63.127631 C24.4143814,59.7460559 19.3601318,55.5520232 15.3745826,50.4881104 C7.65406381,40.678835 3.88530478,28.1296279 4.02893445,12.8305854 C8.27871835,12.2065686 12.4932178,11.1558798 16.7069198,9.74393731 C20.9206219,8.33263079 25.5308256,6.39525302 30.5013494,3.93334859 C35.4718732,6.39525302 40.0457957,8.33263079 44.2595974,9.74393731 C48.4732995,11.1559707 52.7230834,12.2065686 56.9736647,12.8305854 C57.117394,28.2283912 53.3247133,40.795134 45.6280165,50.4881104 Z" id="Shape-Copy" fill="#95959D" fill-rule="nonzero"></path>
        </g>
    </g>
</svg>