<?xml version="1.0" encoding="UTF-8"?>
<svg width="16px" height="20px" viewBox="0 0 16 20" version="1.1" xmlns="http://www.w3.org/2000/svg" xmlns:xlink="http://www.w3.org/1999/xlink">
    <!-- Generator: Sketch 49.1 (51147) - http://www.bohemiancoding.com/sketch -->
    <title>tag1</title>
    <desc>Created with Sketch.</desc>
    <defs></defs>
    <g id="Website" stroke="none" stroke-width="1" fill="none" fill-rule="evenodd">
        <g id="Inbox-Listing" transform="translate(-652.000000, -313.000000)" stroke="#95959D" stroke-width="1.3">
            <g id="tag1" transform="translate(653.000000, 314.000000)">
                <g id="Group" fill="#FFFFFF" fill-rule="nonzero">
                    <path d="M9.66423949,1.56916899 C8.58350313,1.13282094 7.75640897,0.571887175 7.17490962,0.0994748377 C7.01157715,-0.0331582792 6.77641416,-0.0331582792 6.61337975,0.0994748377 C6.03158235,0.571887175 5.20448819,1.13282094 4.12404988,1.56916899 C2.73095507,2.13159302 1.47049339,2.26303393 0.604950528,2.2743599 C0.394525853,2.27704237 0.218377152,2.43292354 0.187677801,2.6409638 C-0.0823572639,4.46712808 -0.595602718,10.1107417 3.13392131,14.5853956 C4.23343494,15.9045735 5.45216936,16.8225735 6.52456027,17.4601067 C6.75257001,17.5957203 7.03512326,17.5957203 7.263133,17.4601067 C8.33582196,16.8228716 9.55425832,15.9048716 10.653772,14.5853956 C14.3838921,10.1107417 13.8703486,4.46712808 13.6006116,2.6409638 C13.5696142,2.43292354 13.3934655,2.27704237 13.1833388,2.2743599 C12.3174979,2.26303393 11.0573343,2.13159302 9.66423949,1.56916899 Z" id="Shape"></path>
                </g>
                <g id="checked-(3)" transform="translate(4.090909, 6.545455)" stroke-linecap="round">
                    <polyline id="Path-3" points="0 1.95499947 2.23611844 4.09090909 6.54545455 0"></polyline>
                </g>
            </g>
        </g>
    </g>
</svg>