<?xml version="1.0" encoding="UTF-8"?>
<svg width="16px" height="20px" viewBox="0 0 16 20" version="1.1" xmlns="http://www.w3.org/2000/svg" xmlns:xlink="http://www.w3.org/1999/xlink">
    <!-- Generator: Sketch 49.1 (51147) - http://www.bohemiancoding.com/sketch -->
    <title>tag2</title>
    <desc>Created with Sketch.</desc>
    <defs>
        <path d="M8.6052248,1.48343187 C8.04006026,1.4760446 7.21750753,1.39031339 6.30818599,1.02347711 C5.60275169,0.738872809 5.0628785,0.373008538 4.68331361,0.0648816154 C4.57670081,-0.0216272051 4.42320173,-0.0216272051 4.31678349,0.0648816154 C3.93702404,0.373008538 3.39715085,0.738872809 2.6919111,1.02347711 C1.78258956,1.39031339 0.959842281,1.4760446 0.394872286,1.48343187 C0.257520766,1.48518149 0.142542368,1.58685365 0.122503832,1.72254614 C-0.0537574683,2.91364624 -0.388770668,6.59464515 2.04561967,9.51320004 C2.76331055,10.3736226 3.55882099,10.9723803 4.25880791,11.3882058 C4.40763782,11.4766587 4.59207017,11.4766587 4.74090008,11.3882058 C5.44108156,10.9725747 6.23639744,10.373817 6.95408832,9.51320004 C9.38886776,6.59464515 9.05366001,2.91364624 8.87759326,1.72254614 C8.85736017,1.58685365 8.74238178,1.48518149 8.6052248,1.48343187" id="path-1"></path>
    </defs>
    <g id="Website" stroke="none" stroke-width="1" fill="none" fill-rule="evenodd">
        <g id="Inbox-Listing" transform="translate(-650.000000, -550.000000)">
            <g id="tag2" transform="translate(651.000000, 551.000000)">
                <g id="Group">
                    <path d="M9.66423949,1.56916899 C8.58350313,1.13282094 7.75640897,0.571887175 7.17490962,0.0994748377 C7.01157715,-0.0331582792 6.77641416,-0.0331582792 6.61337975,0.0994748377 C6.03158235,0.571887175 5.20448819,1.13282094 4.12404988,1.56916899 C2.73095507,2.13159302 1.47049339,2.26303393 0.604950528,2.2743599 C0.394525853,2.27704237 0.218377152,2.43292354 0.187677801,2.6409638 C-0.0823572639,4.46712808 -0.595602718,10.1107417 3.13392131,14.5853956 C4.23343494,15.9045735 5.45216936,16.8225735 6.52456027,17.4601067 C6.75257001,17.5957203 7.03512326,17.5957203 7.263133,17.4601067 C8.33582196,16.8228716 9.55425832,15.9048716 10.653772,14.5853956 C14.3838921,10.1107417 13.8703486,4.46712808 13.6006116,2.6409638 C13.5696142,2.43292354 13.3934655,2.27704237 13.1833388,2.2743599 C12.3174979,2.26303393 11.0573343,2.13159302 9.66423949,1.56916899 Z" id="Shape" stroke="#89CC64" stroke-width="1.3" fill-rule="nonzero"></path>
                    <g id="Path-2" transform="translate(2.454545, 3.272727)">
                        <mask id="mask-2" fill="white">
                            <use xlink:href="#path-1"></use>
                        </mask>
                        <use id="Mask" fill="#89CC64" fill-rule="nonzero" xlink:href="#path-1"></use>
                    </g>
                </g>
            </g>
        </g>
    </g>
</svg>