<svg xmlns="http://www.w3.org/2000/svg" width="44" height="44" viewBox="0 0 44 44">
  <defs>
    <style>
      .cls-1 {
        fill: #ebebeb;
      }

      .cls-2 {
        fill: #b1b3b9;
        fill-rule: evenodd;
      }
    </style>
  </defs>
  <circle id="Ellipse_1_copy_17" data-name="Ellipse 1 copy 17" class="cls-1" cx="22" cy="22" r="22"/>
  <path id="Forma_1_copy_5" data-name="Forma 1 copy 5" class="cls-2" d="M738.265,952.251a0.347,0.347,0,0,1,0-.5l4.518-4.518a0.693,0.693,0,0,0,0-1.007l-1.006-1.006a0.777,0.777,0,0,0-.5-0.216,0.654,0.654,0,0,0-.5.216l-4.518,4.518a0.348,0.348,0,0,1-.5,0l-4.518-4.518a0.695,0.695,0,0,0-1.007,0l-1.007,1.006a0.7,0.7,0,0,0,0,1.007l4.518,4.518a0.345,0.345,0,0,1,0,.5l-4.518,4.519a0.7,0.7,0,0,0,0,1.007l1.007,1.007a0.695,0.695,0,0,0,1.007,0l4.518-4.519a0.348,0.348,0,0,1,.5,0l4.518,4.519a0.695,0.695,0,0,0,1.007,0l1.006-1.007a0.693,0.693,0,0,0,0-1.007Z" transform="translate(-714 -930)"/>
</svg>
