<svg xmlns="http://www.w3.org/2000/svg" width="46" height="46" viewBox="0 0 46 46">
  <defs>
    <style>
      .cls-1 {
        fill: #1b1b1f;
        fill-opacity: 0;
        stroke: #b1b3b9;
        stroke-linejoin: round;
        stroke-width: 2px;
      }

      .cls-2 {
        fill: #b1b3b9;
        fill-rule: evenodd;
      }
    </style>
  </defs>
  <circle id="Ellipse_2_copy_28" data-name="Ellipse 2 copy 28" class="cls-1" cx="23" cy="23" r="22"/>
  <path id="Forma_1_copy_8" data-name="Forma 1 copy 8" class="cls-2" d="M495.265,952.251a0.347,0.347,0,0,1,0-.5l4.518-4.518a0.693,0.693,0,0,0,0-1.007l-1.006-1.006a0.777,0.777,0,0,0-.5-0.216,0.654,0.654,0,0,0-.5.216l-4.518,4.518a0.348,0.348,0,0,1-.5,0l-4.518-4.518a0.695,0.695,0,0,0-1.007,0l-1.007,1.006a0.7,0.7,0,0,0,0,1.007l4.518,4.518a0.345,0.345,0,0,1,0,.5l-4.518,4.519a0.7,0.7,0,0,0,0,1.007l1.007,1.007a0.695,0.695,0,0,0,1.007,0l4.518-4.519a0.348,0.348,0,0,1,.5,0l4.518,4.519a0.695,0.695,0,0,0,1.007,0l1.006-1.007a0.693,0.693,0,0,0,0-1.007Z" transform="translate(-470 -929)"/>
</svg>
