<svg xmlns="http://www.w3.org/2000/svg" width="44" height="44" viewBox="0 0 44 44">
  <defs>
    <style>
      .cls-1 {
        fill: #ad2241;
      }

      .cls-2 {
        fill: #fff;
        fill-rule: evenodd;
      }
    </style>
  </defs>
  <circle id="Ellipse_2_copy_7" data-name="Ellipse 2 copy 7" class="cls-1" cx="22" cy="22" r="22"/>
  <path id="Forma_1_copy_16" data-name="Forma 1 copy 16" class="cls-2" d="M1750.01,730.617a0.792,0.792,0,0,1-.24.678l-2.25,2.237a1.458,1.458,0,0,1-.4.289,1.743,1.743,0,0,1-.49.152l-0.1.008c-0.06.006-.13,0.009-0.22,0.009a7.548,7.548,0,0,1-2.81-.653,14.932,14.932,0,0,1-2.36-1.3,17.932,17.932,0,0,1-2.82-2.373,18.672,18.672,0,0,1-1.97-2.237,16.248,16.248,0,0,1-1.25-1.975,10.4,10.4,0,0,1-.71-1.644,9.083,9.083,0,0,1-.33-1.271,4.735,4.735,0,0,1-.06-0.839c0.01-.2.01-0.316,0.01-0.339a1.9,1.9,0,0,1,.16-0.483,1.306,1.306,0,0,1,.28-0.4l2.26-2.254a0.748,0.748,0,0,1,.54-0.238,0.62,0.62,0,0,1,.39.128,1.084,1.084,0,0,1,.29.313l1.82,3.441a0.807,0.807,0,0,1,.08.593,1,1,0,0,1-.29.542l-0.83.831a0.371,0.371,0,0,0-.06.11,0.754,0.754,0,0,0-.02.127,2.8,2.8,0,0,0,.3.813,8.368,8.368,0,0,0,.63.992,10.677,10.677,0,0,0,1.2,1.347,11.746,11.746,0,0,0,1.36,1.212,8.706,8.706,0,0,0,.99.636,2.764,2.764,0,0,0,.61.246l0.22,0.042a0.409,0.409,0,0,0,.11-0.025,0.353,0.353,0,0,0,.11-0.06l0.96-.983a1.053,1.053,0,0,1,.72-0.271,0.852,0.852,0,0,1,.45.1h0.02l3.27,1.932A0.869,0.869,0,0,1,1750.01,730.617Z" transform="translate(-1719 -704)"/>
</svg>
