<svg id="Group_22_copy" data-name="Group 22 copy" xmlns="http://www.w3.org/2000/svg" width="46" height="46" viewBox="0 0 46 46">
  <defs>
    <style>
      .cls-1, .cls-2 {
        fill: #ad2241;
      }

      .cls-1 {
        fill-opacity: 0;
        stroke: #ad2241;
        stroke-linejoin: round;
        stroke-width: 2px;
      }

      .cls-2 {
        fill-rule: evenodd;
      }
    </style>
  </defs>
  <circle id="Ellipse_2_copy" data-name="Ellipse 2 copy" class="cls-1" cx="23" cy="23" r="22"/>
  <path id="conversations" class="cls-2" d="M1634.05,802.285c-0.4,0-1.18.075-1.18,0.075s3.94,1.323,3.98,5.4c0.04,3.836-3.92,4.869-3.92,4.869s0.74,0.068,1.12.068a4.659,4.659,0,0,1,1.01.084c0.03,0.009-.06.045-0.01,0.1,0.99,1.146,3.7,1.616,3.4,1.359-1.01-.877-0.87-2.255-0.45-2.525,1.49-.955,2.89-1.248,3-4.229C1641.12,804.618,1637.89,802.285,1634.05,802.285Zm-5.49-.294c4.18,0,7.57,2.517,7.57,5.62s-3.39,5.62-7.57,5.62a4.968,4.968,0,0,0-1.09.091c-0.04.009,0.07,0.049,0.01,0.112-1.08,1.237-4.03,1.744-3.7,1.467,1.09-.946.94-2.434,0.48-2.726-1.62-1.03-3.14-1.347-3.26-4.564C1620.87,804.51,1624.38,801.991,1628.56,801.991Z" transform="translate(-1608 -785)"/>
</svg>
