<?xml version="1.0" encoding="UTF-8"?>
<svg width="18px" height="18px" viewBox="0 0 18 18" version="1.1" xmlns="http://www.w3.org/2000/svg" xmlns:xlink="http://www.w3.org/1999/xlink">
    <!-- Generator: Sketch 51.2 (57519) - http://www.bohemiancoding.com/sketch -->
    <title>Shape Copy 2</title>
    <desc>Created with Sketch.</desc>
    <defs></defs>
    <g id="Page-1" stroke="none" stroke-width="1" fill="none" fill-rule="evenodd">
        <g id="Artboard" transform="translate(-78.000000, -949.000000)" fill="#FFFFFF" fill-rule="nonzero">
            <g id="Group-Copy-5" transform="translate(50.000000, 936.000000)">
                <path d="M36.9179772,13 C36.0283554,13.0368262 35.2899442,13.6760676 35.1552886,14.5259566 C35.0206331,15.3758456 35.5273422,16.1990102 36.3648725,16.490963 L34.2483252,22.8996662 L30.9296971,19.7772036 C31.3391986,19.4282022 31.5718987,18.924929 31.5676112,18.3975522 C31.5242844,17.4567112 30.7067278,16.723719 29.7317992,16.7516284 C28.7568706,16.7795378 27.9857242,17.5580101 28.0002005,18.499677 C28.0146769,19.4413439 28.8094134,20.197373 29.7847704,20.1973297 C29.8345498,20.1973297 29.8769545,20.1706268 29.9248902,20.1670664 L30.6771126,27.4 L43.1551544,27.4 L43.9055331,20.1670664 C43.9516857,20.1794122 43.9984512,20.1895127 44.0456529,20.1973297 C44.8082729,20.231531 45.515672,19.8141177 45.8320432,19.1432389 C46.1484144,18.47236 46.0100543,17.6831012 45.4826434,17.1501288 C44.9552325,16.6171565 44.1449683,16.4477879 43.4364887,16.7224236 C42.728009,16.9970592 42.2639707,17.6603995 42.2646558,18.3975522 C42.2606119,18.9248799 42.4932689,19.4280599 42.9025699,19.7772036 L39.5839418,22.8996662 L37.4692382,16.490963 C38.3028284,16.195872 38.8056028,15.3744774 38.6713392,14.5270619 C38.5370755,13.6796465 37.802967,13.0409583 36.9161335,13 L36.9179772,13 Z M42.4,30.9784 L42.3748503,29.2 L31.6,29.2 L31.6251497,30.9784 L42.4,30.9784 Z" id="Shape-Copy-2"></path>
            </g>
        </g>
    </g>
</svg>