<?xml version="1.0" encoding="UTF-8"?>
<svg width="29px" height="30px" viewBox="0 0 29 30" version="1.1" xmlns="http://www.w3.org/2000/svg" xmlns:xlink="http://www.w3.org/1999/xlink">
    <!-- Generator: Sketch 51.2 (57519) - http://www.bohemiancoding.com/sketch -->
    <title>Group</title>
    <desc>Created with Sketch.</desc>
    <defs></defs>
    <g id="Page-1" stroke="none" stroke-width="1" fill="none" fill-rule="evenodd">
        <g id="Artboard-Copy" transform="translate(-272.000000, -399.000000)" fill-rule="nonzero">
            <g id="Group-Copy-6" transform="translate(226.000000, 375.000000)">
                <g id="Group" transform="translate(46.000000, 24.000000)">
                    <path d="M14.3696436,1 C12.9361854,1.05933856 11.7463745,2.08935588 11.5294024,3.45879216 C11.3124303,4.82822843 12.1288967,6.15460344 13.4784194,6.62503061 L10.0680014,16.9514509 L4.72065605,11.9201895 C5.38049069,11.3578392 5.75544315,10.5469092 5.74853465,9.69714065 C5.67872165,8.1811522 4.36138294,7.0000731 2.79046881,7.04504388 C1.21955468,7.09001466 -0.0230028347,8.34437627 0.000323100345,9.86169552 C0.0236490354,11.3790148 1.30421753,12.5972134 2.87582192,12.5971437 C2.9560321,12.5971437 3.02435929,12.5541169 3.10159872,12.54838 L4.31366366,24.2028927 L24.419682,24.2028927 L25.6287762,12.54838 C25.7031425,12.568273 25.7784963,12.5845481 25.854553,12.5971437 C27.0833717,12.6522526 28.2232124,11.9796697 28.7329851,10.8986745 C29.2427577,9.81767936 29.0198165,8.54593706 28.169993,7.68715233 C27.3201696,6.8283676 26.0145811,6.55546202 24.8729993,6.99798574 C23.7314176,7.44050945 22.9837071,8.50935758 22.984811,9.69714065 C22.978295,10.54683 23.3531781,11.3576101 24.0126896,11.9201895 L18.6653443,16.9514509 L15.2578971,6.62503061 C16.6010709,6.14954692 17.4111974,4.82602387 17.1948568,3.46057319 C16.9785162,2.09512252 15.7956383,1.06599654 14.3666729,1 L14.3696436,1 Z M23.2028927,29.9919679 L23.1623687,27.1149024 L5.80072318,27.1149024 L5.8412472,29.9919679 L23.2028927,29.9919679 Z" id="Shape-Copy-5" fill-opacity="0.55" fill="#000000"></path>
                    <path d="M14.3696436,1.6305251e-13 C12.9361854,0.0593385617 11.7463745,1.08935588 11.5294024,2.45879216 C11.3124303,3.82822843 12.1288967,5.15460344 13.4784194,5.62503061 L10.0680014,15.9514509 L4.72065605,10.9201895 C5.38049069,10.3578392 5.75544315,9.54690924 5.74853465,8.69714065 C5.67872165,7.1811522 4.36138294,6.0000731 2.79046881,6.04504388 C1.21955468,6.09001466 -0.0230028347,7.34437627 0.000323100345,8.86169552 C0.0236490354,10.3790148 1.30421753,11.5972134 2.87582192,11.5971437 C2.9560321,11.5971437 3.02435929,11.5541169 3.10159872,11.54838 L4.31366366,23.2028927 L24.419682,23.2028927 L25.6287762,11.54838 C25.7031425,11.568273 25.7784963,11.5845481 25.854553,11.5971437 C27.0833717,11.6522526 28.2232124,10.9796697 28.7329851,9.89867451 C29.2427577,8.81767936 29.0198165,7.54593706 28.169993,6.68715233 C27.3201696,5.8283676 26.0145811,5.55546202 24.8729993,5.99798574 C23.7314176,6.44050945 22.9837071,7.50935758 22.984811,8.69714065 C22.978295,9.54683001 23.3531781,10.3576101 24.0126896,10.9201895 L18.6653443,15.9514509 L15.2578971,5.62503061 C16.6010709,5.14954692 17.4111974,3.82602387 17.1948568,2.46057319 C16.9785162,1.09512252 15.7956383,0.0659965413 14.3666729,0 L14.3696436,1.6305251e-13 Z M23.2028927,28.9919679 L23.1623687,26.1149024 L5.80072318,26.1149024 L5.8412472,28.9919679 L23.2028927,28.9919679 Z" id="Shape-Copy-6" fill="#FFFFFF"></path>
                </g>
            </g>
        </g>
    </g>
</svg>