<?xml version="1.0" encoding="UTF-8"?>
<svg width="17px" height="11px" viewBox="0 0 17 11" version="1.1" xmlns="http://www.w3.org/2000/svg" xmlns:xlink="http://www.w3.org/1999/xlink">
    <!-- Generator: Sketch 48.2 (47327) - http://www.bohemiancoding.com/sketch -->
    <title>MatchSelected copy 3</title>
    <desc>Created with Sketch.</desc>
    <defs></defs>
    <g id="Page-1" stroke="none" stroke-width="1" fill="none" fill-rule="evenodd">
        <g id="MatchSelected-copy-3" fill="#83E1ED">
            <path d="M8.00000686,8.77690304 C8.60335978,8.35541584 9.29806674,8.07131732 10.0318336,7.94599303 C10.4625835,7.36537651 10.4625835,6.58506819 10.0318336,6.00445166 C9.64089353,5.71905083 9.33951494,5.33497793 9.1610507,4.89473742 C9.0390237,4.62625615 8.94189117,4.34789466 8.87078974,4.0629103 C8.86836298,3.84352097 8.97658532,3.63664529 9.1610507,3.50805318 C9.27185246,3.34016935 9.27185246,3.12566547 9.1610507,2.95778165 C8.9747302,1.89633232 9.42360946,0.824100966 10.3220945,0.184413159 C10.3220945,0.184413159 11.9780095,-0.487835221 12.6451339,0.734684685 C12.6451339,0.734684685 13.940364,0.753944189 13.8061778,2.95319605 C13.7248318,3.12824401 13.7248318,3.32841962 13.8061778,3.50346758 C13.9652285,3.6509216 14.066154,3.84706437 14.0916803,4.0583247 C14.0364118,4.34687238 13.9403496,4.62675462 13.8061778,4.89015182 C13.6090369,5.32006688 13.3109381,5.69996002 12.9353949,5.99986607 C12.5508316,6.59399178 12.5508316,7.34728172 12.9353949,7.94140744 C12.9353949,7.94140744 16.8953157,8.44398876 17,11 L9.74157263,11 C9.70980979,10.6170691 9.61169809,10.2419723 9.45131167,9.89028576 C9.23948769,9.54561307 8.93931072,9.25917801 8.57957711,9.05845863 C7.99144178,8.64667211 8.00000686,8.77690304 8.00000686,8.77690304 Z M9,10.9963539 L0,10.9963539 C0,10.9963539 0,8.96367332 3.09372119,8.51520747 C3.29323983,8.41944949 3.43946358,8.24104399 3.492876,8.02820445 C3.54628841,7.8153649 3.50137576,7.59006258 3.37027553,7.41318466 C3.37027553,7.41318466 2.03359623,7.53077022 1.68329407,6.86627508 C1.68329407,6.86627508 2.08153232,6.84257566 1.95984841,5.76334075 C1.95984841,5.76334075 1.50537745,2.05255924 3.92799344,1.07723715 C4.5951494,0.913854489 5.30035462,1.01183596 5.89613848,1.35069194 C5.89613848,1.35069194 7.69005429,1.80644993 7.30287821,5.48532838 C7.10228925,5.96046363 7.2115017,6.50832491 7.57943255,6.87265569 C7.15974371,7.34550562 6.51215917,7.55358554 5.89152924,7.41500769 C5.89152924,7.41500769 5.21581481,7.7349498 5.89152924,8.5170305 C5.90535696,8.51520747 8.60360545,8.84882231 9,11 L9,10.9963539 Z" id="MatchSelected_copy_3"></path>
        </g>
    </g>
</svg>