<?xml version="1.0" encoding="UTF-8"?>
<svg width="28px" height="27px" viewBox="0 0 28 27" version="1.1" xmlns="http://www.w3.org/2000/svg" xmlns:xlink="http://www.w3.org/1999/xlink">
    <!-- Generator: Sketch 49.3 (51167) - http://www.bohemiancoding.com/sketch -->
    <title>error-triangle</title>
    <desc>Created with Sketch.</desc>
    <defs></defs>
    <g id="Page-1" stroke="none" stroke-width="1" fill="none" fill-rule="evenodd">
        <g id="error-triangle" fill="#FF5A60" fill-rule="nonzero">
            <path d="M27.7930545,23.6421971 L15.5798492,0.924420634 C15.2753182,0.356466162 14.6785324,0 14.0289936,0 L14.0272564,0 C13.3777176,0 12.7827269,0.354741604 12.4764008,0.922696076 L0.208647448,23.6404151 C-0.0835494573,24.1856629 -0.0677409446,24.8392129 0.249124189,25.3634786 C0.567726523,25.8894688 1.14163923,26.212766 1.75950308,26.212766 L26.2386665,26.212766 C26.8583255,26.212766 27.4303852,25.8911934 27.7490454,25.3634786 C28.0676478,24.8374883 28.0835142,24.1839383 27.7930545,23.6421971 Z M14.0272564,22.717719 C13.0555251,22.717719 12.2669524,21.9348271 12.2669524,20.9702243 C12.2669524,20.0056214 13.055583,19.2227295 14.0272564,19.2227295 C14.9971926,19.2227295 15.7875603,20.0056214 15.7875603,20.9702243 C15.7875603,21.9348271 14.9989877,22.717719 14.0272564,22.717719 Z M15.7893554,15.7556204 C15.7893554,16.7220053 14.9989877,17.5031151 14.0290515,17.5031151 C13.0573202,17.5031151 12.2687475,16.7219478 12.2687475,15.7556204 L12.2687475,8.76552649 C12.2687475,7.80086617 13.0573781,7.01803176 14.0290515,7.01803176 C14.9989877,7.01803176 15.7893554,7.80092366 15.7893554,8.76552649 L15.7893554,15.7556204 Z" id="Shape"></path>
        </g>
    </g>
</svg>