<?xml version="1.0" encoding="UTF-8"?>
<svg width="18px" height="24px" viewBox="0 0 18 24" version="1.1" xmlns="http://www.w3.org/2000/svg" xmlns:xlink="http://www.w3.org/1999/xlink">
    <!-- Generator: Sketch 50.2 (55047) - http://www.bohemiancoding.com/sketch -->
    <title>lock-padlock-symbol-for-protect</title>
    <desc>Created with Sketch.</desc>
    <defs></defs>
    <g id="Inbox-icons" stroke="none" stroke-width="1" fill="none" fill-rule="evenodd">
        <g id="Artboard" transform="translate(-59.000000, -55.000000)" fill="#72727D" fill-rule="nonzero">
            <g id="lock-padlock-symbol-for-protect" transform="translate(59.000000, 55.000000)">
                <path d="M14.999934,10.5000866 L14.999934,6.00004946 C14.999934,2.69246432 12.3092083,0 9,0 C5.69173147,0 3.00006595,2.69246432 3.00006595,6.00004946 L3.00006595,10.5000866 C1.34316177,10.5000866 0,11.8434004 0,13.4999134 L0,20.9999258 C0,22.6569335 1.34316177,24 3.00006595,24 L14.999934,24 C16.656492,24 18,22.6569335 18,20.9999258 L18,13.4999134 C18.0000495,11.8433509 16.656492,10.5000866 14.999934,10.5000866 Z M9.75005358,17.7698985 L9.75005358,20.2499196 C9.75005358,20.6645178 9.41464648,20.9999258 9.00004946,20.9999258 C8.58545245,20.9999258 8.24999588,20.6645178 8.24999588,20.2499196 L8.24999588,17.7698985 C7.80977714,17.5092784 7.50009068,17.0492238 7.50009068,16.5000371 C7.50009068,15.6707913 8.17174576,14.9999753 9,14.9999753 C9.82825424,14.9999753 10.5000082,15.6707913 10.5000082,16.5000371 C10.5000577,17.0492238 10.190025,17.5093279 9.75005358,17.7698985 Z M11.9998681,10.5000866 L6.00003298,10.5000866 L6.00003298,6.00004946 C6.00003298,4.34477301 7.34542057,2.99997527 9,2.99997527 C10.653788,2.99997527 11.9998186,4.34477301 11.9998186,6.00004946 L11.9998681,10.5000866 Z" id="Shape"></path>
            </g>
        </g>
    </g>
</svg>