<?xml version="1.0" encoding="UTF-8"?>
<svg width="44px" height="44px" viewBox="0 0 44 44" version="1.1" xmlns="http://www.w3.org/2000/svg" xmlns:xlink="http://www.w3.org/1999/xlink">
    <!-- Generator: Sketch 48.2 (47327) - http://www.bohemiancoding.com/sketch -->
    <title>Group 2</title>
    <desc>Created with Sketch.</desc>
    <defs></defs>
    <g id="Custom-Preset" stroke="none" stroke-width="1" fill="none" fill-rule="evenodd" transform="translate(-327.000000, -257.000000)">
        <g id="Group-2" transform="translate(327.000000, 257.000000)">
            <circle id="Oval-4-Copy-10" fill="#DFE0E3" cx="22" cy="22" r="22"></circle>
            <path d="M25.0491023,16.294369 C24.6492371,16.294369 23.8694998,16.3694632 23.8694998,16.3694632 C23.8694998,16.3694632 27.8081726,17.6941239 27.8481592,21.7762417 C27.8881457,25.6170569 23.9294796,26.6513536 23.9294796,26.6513536 C23.9294796,26.6513536 24.6692303,26.7194389 25.0491023,26.7194389 C25.3877078,26.7106175 25.7262636,26.7388195 26.0587621,26.8035444 C26.088752,26.8125557 25.9987823,26.8486009 26.0487655,26.9036699 C27.038432,28.0511084 29.7475192,28.5216984 29.4476202,28.2643758 C28.4379604,27.3862749 28.5779133,26.0065452 28.9977718,25.7362063 C30.4872699,24.7800075 31.8867983,24.4866397 31.9967613,21.5018977 C32.1167209,18.6302976 28.8878089,16.294369 25.0491023,16.294369 Z M19.5609516,16 C23.7395436,16 27.1284017,18.5201595 27.1284017,21.6270546 C27.1284017,24.7339497 23.7395436,27.2541093 19.5609516,27.2541093 C19.1954995,27.2442187 18.8300743,27.2747753 18.4713187,27.3452235 C18.4313322,27.3542348 18.5412951,27.394285 18.4813153,27.4573641 C17.4016791,28.6959168 14.4526728,29.2035533 14.7825617,28.9262056 C15.8721945,27.9790181 15.722245,26.4891502 15.2624,26.1967837 C13.6429456,25.1654908 12.1234576,24.8480928 12.0034981,21.6270546 C11.8735419,18.522162 15.3823595,16 19.5609516,16 Z" id="conversations_copy_7-copy-3" fill="#B1B3B9"></path>
        </g>
    </g>
</svg>