<?xml version="1.0" encoding="UTF-8"?>
<svg width="46px" height="46px" viewBox="0 0 46 46" version="1.1" xmlns="http://www.w3.org/2000/svg" xmlns:xlink="http://www.w3.org/1999/xlink">
    <!-- Generator: Sketch 48.2 (47327) - http://www.bohemiancoding.com/sketch -->
    <title>Combined Shape</title>
    <desc>Created with Sketch.</desc>
    <defs></defs>
    <g id="Custom-Preset" stroke="none" stroke-width="1" fill="none" fill-rule="evenodd" transform="translate(-517.000000, -127.000000)" opacity="0.3">
        <path d="M540,173 C527.297451,173 517,162.702549 517,150 C517,137.297451 527.297451,127 540,127 C552.702549,127 563,137.297451 563,150 C563,162.702549 552.702549,173 540,173 Z M540,171 C551.59798,171 561,161.59798 561,150 C561,138.40202 551.59798,129 540,129 C528.40202,129 519,138.40202 519,150 C519,161.59798 528.40202,171 540,171 Z M540,168 C530.058875,168 522,159.941125 522,150 C522,140.058875 530.058875,132 540,132 C549.941125,132 558,140.058875 558,150 C558,159.941125 549.941125,168 540,168 Z M531.207,151.184 L531.343,151.392 L536.743,157.269 C536.868532,157.402953 537.04392,157.478956 537.2275,157.478956 C537.41108,157.478956 537.586468,157.402953 537.712,157.269 L548.782,145.657 C548.914711,145.528523 548.989633,145.351711 548.989633,145.167 C548.989633,144.982289 548.914711,144.805477 548.782,144.677 L547.314,143.198 C547.188468,143.064047 547.01308,142.988044 546.8295,142.988044 C546.64592,142.988044 546.470532,143.064047 546.345,143.198 L546.276,143.198 L537.504,152.422 C537.441398,152.489086 537.353758,152.527175 537.262,152.527175 C537.170242,152.527175 537.082602,152.489086 537.02,152.422 L533.714,148.795 L533.645,148.725 C533.519468,148.591047 533.34408,148.515044 533.1605,148.515044 C532.97692,148.515044 532.801532,148.591047 532.676,148.725 L531.207,150.204 C531.074546,150.332616 530.999804,150.509376 530.999804,150.694 C530.999804,150.878624 531.074546,151.055384 531.207,151.184 Z" id="Combined-Shape" fill="#B1B3B9"></path>
    </g>
</svg>