<?xml version="1.0" encoding="UTF-8"?>
<svg width="44px" height="44px" viewBox="0 0 44 44" version="1.1" xmlns="http://www.w3.org/2000/svg" xmlns:xlink="http://www.w3.org/1999/xlink">
    <!-- Generator: Sketch 48.2 (47327) - http://www.bohemiancoding.com/sketch -->
    <title>Group 20</title>
    <desc>Created with Sketch.</desc>
    <defs>
        <circle id="path-1" cx="22" cy="22" r="22"></circle>
    </defs>
    <g id="Custom-Preset" stroke="none" stroke-width="1" fill="none" fill-rule="evenodd" transform="translate(-928.000000, -193.000000)">
        <g id="Group-20" transform="translate(928.000000, 193.000000)">
            <g id="Oval-4">
                <use fill="#FFFFFF" fill-rule="evenodd" xlink:href="#path-1"></use>
                <circle stroke="#DFE0E3" stroke-width="2" cx="22" cy="22" r="21"></circle>
            </g>
            <path d="M24.2699749,22.2491766 C24.1992931,22.1852667 24.1589606,22.0944148 24.1589606,21.999109 C24.1589606,21.9038033 24.1992931,21.8129514 24.2699749,21.7490415 L28.7799249,17.2298209 C28.9202328,17.099948 29,16.9174029 29,16.7261848 C29,16.5349667 28.9202328,16.3524217 28.7799249,16.2225488 L27.779936,15.216277 C27.6414734,15.0852093 27.460395,15.0084957 27.2699416,15.0002186 C27.0796402,14.9952777 26.8967934,15.0742897 26.7699472,15.216277 L22.2499972,19.7354976 C22.185167,19.8045329 22.0946897,19.8436886 22,19.8436886 C21.9053103,19.8436886 21.814833,19.8045329 21.7500028,19.7354976 L17.2300528,15.216277 C17.0953207,15.0856536 16.9174933,15.0088106 16.7300584,15.0002186 C16.539605,15.0084957 16.3585266,15.0852093 16.220064,15.216277 L15.2200751,16.2225488 C15.0797672,16.3524217 15,16.5349667 15,16.7261848 C15,16.9174029 15.0797672,17.099948 15.2200751,17.2298209 L19.7300251,21.7490415 C19.8007069,21.8129514 19.8410394,21.9038033 19.8410394,21.999109 C19.8410394,22.0944148 19.8007069,22.1852667 19.7300251,22.2491766 L15.2200751,26.7693975 C15.0797672,26.8992704 15,27.0818155 15,27.2730335 C15,27.4642516 15.0797672,27.6467967 15.2200751,27.7766696 L16.220064,28.7839416 C16.3589213,28.9144045 16.5397647,28.9910185 16.7300584,29 C16.9173882,28.9909537 17.095062,28.914177 17.2300528,28.7839416 L21.7500028,24.2637207 C21.814833,24.1946855 21.9053103,24.1555297 22,24.1555297 C22.0946897,24.1555297 22.185167,24.1946855 22.2499972,24.2637207 L26.7699472,28.7839416 C26.904938,28.914177 27.0826118,28.9909537 27.2699416,29 C27.4602353,28.9910185 27.6410787,28.9144045 27.779936,28.7839416 L28.7799249,27.7766696 C28.9202328,27.6467967 29,27.4642516 29,27.2730335 C29,27.0818155 28.9202328,26.8992704 28.7799249,26.7693975 L24.2699749,22.2491766 Z" id="Forma_1_copy_3" fill="#CDCED1"></path>
        </g>
    </g>
</svg>