<?xml version="1.0" encoding="UTF-8"?>
<svg width="46px" height="46px" viewBox="0 0 46 46" version="1.1" xmlns="http://www.w3.org/2000/svg" xmlns:xlink="http://www.w3.org/1999/xlink">
    <!-- Generator: Sketch 48.2 (47327) - http://www.bohemiancoding.com/sketch -->
    <title>Group 25</title>
    <desc>Created with Sketch.</desc>
    <defs>
        <linearGradient x1="50%" y1="10.7262436%" x2="50%" y2="100%" id="linearGradient-1">
            <stop stop-color="#88C86D" offset="0%"></stop>
            <stop stop-color="#20BCCF" offset="100%"></stop>
        </linearGradient>
    </defs>
    <g id="Custom-Preset" stroke="none" stroke-width="1" fill="none" fill-rule="evenodd" transform="translate(-261.000000, -450.000000)">
        <g id="Group-25" transform="translate(261.000000, 450.000000)">
            <path d="M23,46 C10.2974508,46 0,35.7025492 0,23 C0,10.2974508 10.2974508,0 23,0 C35.7025492,0 46,10.2974508 46,23 C46,35.7025492 35.7025492,46 23,46 Z M23,44 C34.5979797,44 44,34.5979797 44,23 C44,11.4020203 34.5979797,2 23,2 C11.4020203,2 2,11.4020203 2,23 C2,34.5979797 11.4020203,44 23,44 Z M23,41 C13.0588745,41 5,32.9411255 5,23 C5,13.0588745 13.0588745,5 23,5 C32.9411255,5 41,13.0588745 41,23 C41,32.9411255 32.9411255,41 23,41 Z" id="Combined-Shape-Copy-2" fill="url(#linearGradient-1)"></path>
            <g id="photo-camera" transform="translate(14.000000, 15.000000)" fill="#FFFFFF" fill-rule="nonzero">
                <path d="M17.2708197,3.19478992 C16.8027213,2.7149916 16.2380984,2.47502521 15.5765574,2.47502521 L13.4797377,2.47502521 L13.0024262,1.16994958 C12.8838033,0.856504202 12.6670492,0.586151261 12.3517377,0.35892437 C12.0365574,0.131798319 11.7136393,0.0181512605 11.3828525,0.0181512605 L6.59003279,0.0181512605 C6.25927869,0.0181512605 5.93629508,0.131798319 5.62111475,0.35892437 C5.30593443,0.586151261 5.08914754,0.856504202 4.97055738,1.16994958 L4.49318033,2.47502521 L2.39636066,2.47502521 C1.7347541,2.47502521 1.17009836,2.7149916 0.702,3.19478992 C0.234,3.67462185 0,4.25357983 0,4.93179832 L0,13.5305546 C0,14.2088067 0.234,14.7878319 0.702,15.2675294 C1.17009836,15.7474286 1.73478689,15.987395 2.39636066,15.987395 L15.5763279,15.987395 C16.2378689,15.987395 16.802459,15.7474286 17.2705902,15.2675294 C17.7385574,14.7878319 17.972623,14.2088067 17.972623,13.5305546 L17.972623,4.93179832 C17.9727541,4.25357983 17.7386885,3.67462185 17.2708197,3.19478992 Z M11.9490492,12.2686723 C11.1284262,13.1100168 10.1409508,13.5307899 8.98636066,13.5307899 C7.83177049,13.5307899 6.84436066,13.1100168 6.02367213,12.2686723 C5.20298361,11.4274622 4.79272131,10.4148571 4.79272131,9.23142857 C4.79272131,8.04763025 5.20311475,7.03536134 6.02367213,6.19398319 C6.8442623,5.35260504 7.83180328,4.932 8.98636066,4.932 C10.140918,4.932 11.1284262,5.35270588 11.9490492,6.19398319 C12.7697049,7.0352605 13.1800328,8.04763025 13.1800328,9.23142857 C13.1800328,10.4148571 12.7697377,11.4273613 11.9490492,12.2686723 Z" id="Shape"></path>
                <path d="M8.98636066,6.46732773 C8.24370492,6.46732773 7.60872131,6.73764706 7.08137705,7.27835294 C6.55403279,7.8189916 6.29036066,8.46988235 6.29036066,9.23142857 C6.29036066,9.99267227 6.55403279,10.6436639 7.08137705,11.1843025 C7.60872131,11.7248403 8.24367213,11.9951597 8.98636066,11.9951597 C9.72891803,11.9951597 10.3639672,11.7248403 10.8913115,11.1843025 C11.4186557,10.6436639 11.6823607,9.99270588 11.6823607,9.23142857 C11.6823607,8.46991597 11.4186557,7.81902521 10.8913115,7.27835294 C10.364,6.73768067 9.72891803,6.46732773 8.98636066,6.46732773 Z" id="Shape"></path>
            </g>
        </g>
    </g>
</svg>