<?xml version="1.0" encoding="UTF-8"?>
<svg width="46px" height="46px" viewBox="0 0 46 46" version="1.1" xmlns="http://www.w3.org/2000/svg" xmlns:xlink="http://www.w3.org/1999/xlink">
    <!-- Generator: Sketch 48.2 (47327) - http://www.bohemiancoding.com/sketch -->
    <title>Group 9</title>
    <desc>Created with Sketch.</desc>
    <defs>
        <linearGradient x1="50%" y1="10.7262436%" x2="50%" y2="100%" id="linearGradient-1">
            <stop stop-color="#88C86D" offset="0%"></stop>
            <stop stop-color="#20BCCF" offset="100%"></stop>
        </linearGradient>
    </defs>
    <g id="Custom-Preset" stroke="none" stroke-width="1" fill="none" fill-rule="evenodd" transform="translate(-326.000000, -127.000000)">
        <g id="Group-9" transform="translate(326.000000, 127.000000)">
            <circle id="Oval" fill="url(#linearGradient-1)" cx="23" cy="23" r="23"></circle>
            <path d="M14.2073136,23.9182997 C14.0747851,23.7940407 14,23.623269 14,23.4448995 C14,23.26653 14.0747851,23.0957583 14.2073136,22.9714994 L15.6771441,21.5426039 C15.8027472,21.4131893 15.9782343,21.3397604 16.161918,21.3397604 C16.3456017,21.3397604 16.5210888,21.4131893 16.6466919,21.5426039 L16.7157309,21.6102324 L20.0236,25.1143596 C20.0862371,25.1791726 20.1739272,25.2159714 20.2657368,25.2159714 C20.3575463,25.2159714 20.4452364,25.1791726 20.5078736,25.1143596 L29.2848328,16.2028435 L29.3538718,16.2028435 C29.4794749,16.0734289 29.654962,16 29.8386457,16 C30.0223294,16 30.1978166,16.0734289 30.3234196,16.2028435 L31.7922496,17.631739 C31.9250352,17.7558631 32,17.9266852 32,18.1051392 C32,18.2835931 31.9250352,18.4544152 31.7922496,18.5785393 L20.7159912,29.7971565 C20.5903881,29.9265711 20.414901,30 20.2312173,30 C20.0475336,30 19.8720464,29.9265711 19.7464434,29.7971565 L14.3433905,24.1192532 L14.2073136,23.9182997 Z" id="Forma_1_copy_30-path" fill="#FFFFFF"></path>
        </g>
    </g>
</svg>