<?xml version="1.0" encoding="UTF-8"?>
<svg width="46px" height="46px" viewBox="0 0 46 46" version="1.1" xmlns="http://www.w3.org/2000/svg" xmlns:xlink="http://www.w3.org/1999/xlink">
    <!-- Generator: Sketch 48.2 (47327) - http://www.bohemiancoding.com/sketch -->
    <title>Group 11 Copy</title>
    <desc>Created with Sketch.</desc>
    <defs></defs>
    <g id="Custom-Preset" stroke="none" stroke-width="1" fill="none" fill-rule="evenodd" transform="translate(-594.000000, -667.000000)">
        <g id="Group-11-Copy" transform="translate(594.000000, 667.000000)" fill="#AF1F3F">
            <path d="M23,46 C10.2974508,46 0,35.7025492 0,23 C0,10.2974508 10.2974508,0 23,0 C35.7025492,0 46,10.2974508 46,23 C46,35.7025492 35.7025492,46 23,46 Z M23,44 C34.5979797,44 44,34.5979797 44,23 C44,11.4020203 34.5979797,2 23,2 C11.4020203,2 2,11.4020203 2,23 C2,34.5979797 11.4020203,44 23,44 Z M23,41 C13.0588745,41 5,32.9411255 5,23 C5,13.0588745 13.0588745,5 23,5 C32.9411255,5 41,13.0588745 41,23 C41,32.9411255 32.9411255,41 23,41 Z M14.207,24.184 L14.343,24.392 L19.743,30.269 C19.8685321,30.4029525 20.0439201,30.4789562 20.2275,30.4789562 C20.4110799,30.4789562 20.5864679,30.4029525 20.712,30.269 L31.782,18.657 C31.9147106,18.5285234 31.9896331,18.3517115 31.9896331,18.167 C31.9896331,17.9822885 31.9147106,17.8054766 31.782,17.677 L30.314,16.198 C30.1884679,16.0640475 30.0130799,15.9880438 29.8295,15.9880438 C29.6459201,15.9880438 29.4705321,16.0640475 29.345,16.198 L29.276,16.198 L20.504,25.422 C20.4413982,25.4890857 20.3537577,25.5271748 20.262,25.5271748 C20.1702423,25.5271748 20.0826018,25.4890857 20.02,25.422 L16.714,21.795 L16.645,21.725 C16.5194679,21.5910475 16.3440799,21.5150438 16.1605,21.5150438 C15.9769201,21.5150438 15.8015321,21.5910475 15.676,21.725 L14.207,23.204 C14.0745464,23.3326161 13.9998035,23.5093759 13.9998035,23.694 C13.9998035,23.8786241 14.0745464,24.0553839 14.207,24.184 Z" id="Combined-Shape-Copy-4"></path>
        </g>
    </g>
</svg>