<?xml version="1.0" encoding="UTF-8"?>
<svg width="44px" height="44px" viewBox="0 0 44 44" version="1.1" xmlns="http://www.w3.org/2000/svg" xmlns:xlink="http://www.w3.org/1999/xlink">
    <!-- Generator: Sketch 48.2 (47327) - http://www.bohemiancoding.com/sketch -->
    <title>Group 19</title>
    <desc>Created with Sketch.</desc>
    <defs>
        <linearGradient x1="50%" y1="10.7262436%" x2="50%" y2="100%" id="linearGradient-1">
            <stop stop-color="#88C86D" offset="0%"></stop>
            <stop stop-color="#20BCCF" offset="100%"></stop>
        </linearGradient>
    </defs>
    <g id="Custom-Preset" stroke="none" stroke-width="1" fill="none" fill-rule="evenodd" transform="translate(-730.000000, -193.000000)">
        <g id="Group-19" transform="translate(730.000000, 193.000000)">
            <circle id="Oval-4-Copy-5" fill="url(#linearGradient-1)" cx="22" cy="22" r="22"></circle>
            <circle id="Oval-4-Copy-6" fill-opacity="0.2" fill="#000000" cx="22" cy="22" r="22"></circle>
            <path d="M28.9920578,26.6277625 C29.0282265,26.8790087 28.9394636,27.1320926 28.7543282,27.3055858 L26.500891,29.542003 C26.3878079,29.6632112 26.2520619,29.761034 26.1013455,29.8299279 C25.9491403,29.9058091 25.7860224,29.9574184 25.6178953,29.9828881 L25.5180089,29.990886 C25.4449608,29.997645 25.3716144,30.0006482 25.2982588,29.9998836 C24.3299391,29.9658613 23.3774081,29.7441562 22.4934488,29.3470538 C21.6679453,28.9864295 20.8769173,28.5514178 20.1301366,28.0473925 C19.1126719,27.3566356 18.1699708,26.5615396 17.3173356,25.6750108 C16.6035392,24.9834922 15.946497,24.2356063 15.3525702,23.4385937 C14.8870448,22.8119907 14.4680629,22.1520587 14.0989959,21.4641083 C13.8156694,20.9374882 13.5777431,20.3876376 13.3878047,19.8205366 C13.2484041,19.4057281 13.1405521,18.9809601 13.0651717,18.5498678 C13.0158155,18.2738001 12.994398,17.9934548 13.0012444,17.7130859 C13.0122319,17.513138 13.0172262,17.3971682 13.0172262,17.3741742 C13.0432893,17.2063628 13.0948264,17.0435245 13.1700524,16.8913001 C13.23863,16.7400451 13.3367848,16.6040717 13.4587241,16.4914043 L15.7121612,14.2369919 C15.8525668,14.0871092 16.0482719,14.0014584 16.2535455,14.0000536 C16.3938323,13.9982322 16.5307872,14.0428695 16.6431024,14.1270205 C16.7571914,14.2136686 16.8549429,14.3199692 16.9317741,14.4409387 L18.7447122,17.8810421 C18.8456104,18.0612557 18.8755382,18.2727166 18.8286168,18.4738876 C18.7886709,18.6791115 18.6885166,18.8677617 18.540944,19.0157464 L17.710888,19.8465299 C17.682613,19.8778534 17.6623858,19.9155982 17.6519551,19.9565012 C17.6363,19.9970823 17.6275225,20.0399943 17.6259846,20.0834681 C17.6884043,20.3675184 17.7909888,20.6412044 17.9306381,20.8962563 C18.1135203,21.2427346 18.3232583,21.5743309 18.5579247,21.8879978 C18.9199582,22.3689704 19.3208516,22.8193677 19.7565615,23.2346468 C20.1748012,23.6746653 20.6281161,24.0798968 21.1120199,24.446331 C21.4260352,24.6826695 21.7572474,24.8952053 22.1028929,25.0821653 C22.295429,25.1889944 22.5004179,25.2715991 22.7131988,25.3281012 L22.924958,25.3700903 C22.9630093,25.3670404 23.0003856,25.3582779 23.0358319,25.344097 C23.0765033,25.3331584 23.1141039,25.3129731 23.1457069,25.2851124 L24.1106095,24.3023685 C24.3052086,24.1251269 24.5597053,24.028312 24.8227996,24.0314392 C24.9814951,24.0230489 25.1395201,24.0575824 25.2802793,24.1314131 L25.2972599,24.1314131 L28.5665417,26.0629097 C28.7833098,26.180757 28.9384928,26.3867551 28.9920578,26.6277625 Z" id="Forma_1_copy_25-Copy-2" fill="#FFFFFF"></path>
        </g>
    </g>
</svg>