<?xml version="1.0" encoding="UTF-8"?>
<svg width="44px" height="44px" viewBox="0 0 44 44" version="1.1" xmlns="http://www.w3.org/2000/svg" xmlns:xlink="http://www.w3.org/1999/xlink">
    <!-- Generator: Sketch 48.2 (47327) - http://www.bohemiancoding.com/sketch -->
    <title>Group 5</title>
    <desc>Created with Sketch.</desc>
    <defs>
        <linearGradient x1="50%" y1="10.7262436%" x2="50%" y2="100%" id="linearGradient-1">
            <stop stop-color="#88C86D" offset="0%"></stop>
            <stop stop-color="#20BCCF" offset="100%"></stop>
        </linearGradient>
    </defs>
    <g id="Custom-Preset" stroke="none" stroke-width="1" fill="none" fill-rule="evenodd" transform="translate(-730.000000, -257.000000)">
        <g id="Group-5" transform="translate(730.000000, 257.000000)">
            <circle id="Oval-4-Copy-8" fill="url(#linearGradient-1)" cx="22" cy="22" r="22"></circle>
            <circle id="Oval-4-Copy-9" fill-opacity="0.2" fill="#000000" cx="22" cy="22" r="22"></circle>
            <path d="M24.0491023,16.294369 C23.6492371,16.294369 22.8694998,16.3694632 22.8694998,16.3694632 C22.8694998,16.3694632 26.8081726,17.6941239 26.8481592,21.7762417 C26.8881457,25.6170569 22.9294796,26.6513536 22.9294796,26.6513536 C22.9294796,26.6513536 23.6692303,26.7194389 24.0491023,26.7194389 C24.3877078,26.7106175 24.7262636,26.7388195 25.0587621,26.8035444 C25.088752,26.8125557 24.9987823,26.8486009 25.0487655,26.9036699 C26.038432,28.0511084 28.7475192,28.5216984 28.4476202,28.2643758 C27.4379604,27.3862749 27.5779133,26.0065452 27.9977718,25.7362063 C29.4872699,24.7800075 30.8867983,24.4866397 30.9967613,21.5018977 C31.1167209,18.6302976 27.8878089,16.294369 24.0491023,16.294369 Z M18.5609516,16 C22.7395436,16 26.1284017,18.5201595 26.1284017,21.6270546 C26.1284017,24.7339497 22.7395436,27.2541093 18.5609516,27.2541093 C18.1954995,27.2442187 17.8300743,27.2747753 17.4713187,27.3452235 C17.4313322,27.3542348 17.5412951,27.394285 17.4813153,27.4573641 C16.4016791,28.6959168 13.4526728,29.2035533 13.7825617,28.9262056 C14.8721945,27.9790181 14.722245,26.4891502 14.2624,26.1967837 C12.6429456,25.1654908 11.1234576,24.8480928 11.0034981,21.6270546 C10.8735419,18.522162 14.3823595,16 18.5609516,16 Z" id="conversations_copy_7-copy-2" fill="#FFFFFF"></path>
        </g>
    </g>
</svg>