<?xml version="1.0" encoding="UTF-8"?>
<svg width="46px" height="46px" viewBox="0 0 46 46" version="1.1" xmlns="http://www.w3.org/2000/svg" xmlns:xlink="http://www.w3.org/1999/xlink">
    <!-- Generator: Sketch 48.2 (47327) - http://www.bohemiancoding.com/sketch -->
    <title>Group 22 Copy</title>
    <desc>Created with Sketch.</desc>
    <defs>
        <linearGradient x1="50%" y1="10.7262436%" x2="50%" y2="100%" id="linearGradient-1">
            <stop stop-color="#88C86D" offset="0%"></stop>
            <stop stop-color="#20BCCF" offset="100%"></stop>
        </linearGradient>
    </defs>
    <g id="Custom-Preset" stroke="none" stroke-width="1" fill="none" fill-rule="evenodd" transform="translate(-458.000000, -385.000000)" opacity="0.3">
        <g id="Group-22-Copy" transform="translate(458.000000, 385.000000)">
            <path d="M23,46 C10.2974508,46 0,35.7025492 0,23 C0,10.2974508 10.2974508,0 23,0 C35.7025492,0 46,10.2974508 46,23 C46,35.7025492 35.7025492,46 23,46 Z M23,44 C34.5979797,44 44,34.5979797 44,23 C44,11.4020203 34.5979797,2 23,2 C11.4020203,2 2,11.4020203 2,23 C2,34.5979797 11.4020203,44 23,44 Z M23,41 C13.0588745,41 5,32.9411255 5,23 C5,13.0588745 13.0588745,5 23,5 C32.9411255,5 41,13.0588745 41,23 C41,32.9411255 32.9411255,41 23,41 Z" id="Combined-Shape-Copy" fill="url(#linearGradient-1)"></path>
            <g id="bell" transform="translate(15.000000, 14.000000)" fill="#FFFFFF" fill-rule="nonzero">
                <path d="M5.56710364,15.8288087 C5.56705882,15.8335043 5.56670028,15.8381609 5.56670028,15.8428565 C5.56670028,17.0198217 6.6594958,17.9739391 8.00752941,17.9739391 C9.35556303,17.9739391 10.4483585,17.0198217 10.4483585,15.8428565 C10.4483585,15.8381609 10.448,15.8335043 10.4479552,15.8288087 L5.56710364,15.8288087 Z" id="Shape"></path>
                <path d="M15.8005154,13.1649652 L13.6037647,10.3474957 C13.6037647,9.48502174 13.6037647,7.37757391 13.6037647,6.8324087 C13.6037647,4.46184783 11.6701401,2.48583913 9.10489636,2.04053478 L9.10489636,0.958108696 C9.10485154,0.428986957 8.61355742,0 8.00748459,0 C7.40141176,0 6.91011765,0.428986957 6.91011765,0.958108696 L6.91011765,2.04057391 C4.34487395,2.48591739 2.4112493,4.46192609 2.4112493,6.83244783 C2.4112493,7.76046522 2.4112493,9.80964783 2.4112493,10.3475348 L0.214498599,13.1650043 C-0.0168963585,13.4617696 -0.0413669468,13.845913 0.150901961,14.1632609 C0.343170868,14.4806087 0.720627451,14.6790783 1.13183193,14.6790783 L14.8831373,14.6790783 C15.2943417,14.6790783 15.6717983,14.4805696 15.8640672,14.1632609 C16.056381,13.8458739 16.0318655,13.4617304 15.8005154,13.1649652 Z" id="Shape"></path>
            </g>
        </g>
    </g>
</svg>