<?xml version="1.0" encoding="UTF-8"?>
<svg width="46px" height="46px" viewBox="0 0 46 46" version="1.1" xmlns="http://www.w3.org/2000/svg" xmlns:xlink="http://www.w3.org/1999/xlink">
    <!-- Generator: Sketch 48.2 (47327) - http://www.bohemiancoding.com/sketch -->
    <title>Group 33 Copy</title>
    <desc>Created with Sketch.</desc>
    <defs>
        <path d="M0.15,5.5 C0.05,5.4 0,5.25 0,5.15 C0,5.05 0.05,4.9 0.15,4.8 L0.85,4.1 C1.05,3.9 1.35,3.9 1.55,4.1 L1.6,4.15 L4.35,7.1 C4.45,7.2 4.6,7.2 4.7,7.1 L11.4,0.15 L11.45,0.15 C11.65,-0.05 11.95,-0.05 12.15,0.15 L12.85,0.85 C13.05,1.05 13.05,1.35 12.85,1.55 L4.85,9.85 C4.75,9.95 4.65,10 4.5,10 C4.35,10 4.25,9.95 4.15,9.85 L0.25,5.65 L0.15,5.5 Z" id="path-1"></path>
    </defs>
    <g id="Custom-Preset" stroke="none" stroke-width="1" fill="none" fill-rule="evenodd" transform="translate(-727.000000, -1056.000000)">
        <g id="Group-33-Copy" transform="translate(727.000000, 1056.000000)">
            <circle id="Oval-Copy-4" fill="#AF1F3F" cx="23" cy="23" r="23"></circle>
            <circle id="Oval-3-Copy-8" fill-opacity="0.199247056" fill="#000000" cx="23" cy="23" r="23"></circle>
            <g id="Group-32-Copy-2" transform="translate(14.000000, 14.000000)" fill-rule="nonzero">
                <g id="user-male-black-shape" fill="#FFFFFF">
                    <path d="M12.1875328,10.312619 L11.2499923,10.312619 C10.2145149,10.312619 9.37494204,9.47303733 9.37494204,8.43751822 L9.37494204,7.83517602 C9.78975126,7.34214824 10.0872713,6.75897316 10.2722012,6.14275025 C10.291399,6.03887683 10.3913761,5.98755841 10.4580585,5.91614543 C10.8170054,5.55725657 10.8875829,4.9516065 10.6183495,4.52037722 C10.5816851,4.45493078 10.515652,4.39817137 10.5193926,4.31708209 C10.5193926,3.76729489 10.522144,3.21664209 10.5186816,2.6672877 C10.5039663,2.00401261 10.3143993,1.31405813 9.84938511,0.822916137 C9.47396081,0.426094927 8.95846343,0.189813802 8.42664325,0.0886917877 C7.75459542,-0.0395115124 7.05150955,-0.0330194234 6.38589191,0.13630044 C5.80906039,0.281877807 5.26713121,0.619713752 4.93205018,1.12050113 C4.63533391,1.55587298 4.50533891,2.08451452 4.4833897,2.60552011 C4.47516647,3.16489087 4.48150392,3.72565278 4.47980363,4.28638378 C4.49257127,4.39863509 4.39735497,4.47459253 4.35435305,4.56752215 C4.10076235,5.02756394 4.2123942,5.65432876 4.61987671,5.98891866 C4.72325442,6.06026981 4.74260682,6.19032799 4.78004415,6.30245564 C4.95774003,6.85635449 5.25247779,7.36861123 5.62508888,7.8149578 L5.62508888,8.43751822 C5.62508888,9.47303733 4.78554691,10.312619 3.75010047,10.312619 L2.81252898,10.312619 C2.81252898,10.312619 1.11335069,10.7812242 0,13.1250847 L0,14.0626351 C0,14.5807347 0.419322728,15 0.937540575,15 L14.062614,15 C14.5807082,15 15,14.5807347 15,14.0626351 L15,13.1250847 C13.8867111,10.7814097 12.1875328,10.312619 12.1875328,10.312619 Z" id="Shape"></path>
                </g>
                <g id="checked-(4)" transform="translate(7.000000, 9.000000)">
                    <g id="Shape">
                        <use fill="#FFFFFF" fill-rule="evenodd" xlink:href="#path-1"></use>
                        <path stroke="#8C1832" stroke-width="1.4" d="M-0.403258695,5.9320549 C-0.592406305,5.71178292 -0.7,5.41869062 -0.7,5.15 C-0.7,4.85482503 -0.57015032,4.53020083 -0.344974747,4.30502525 L0.355025253,3.60502525 C0.828392257,3.13165825 1.57160774,3.13165825 2.04497475,3.60502525 L2.11202719,3.67268652 L4.53032459,6.26741876 L11.1025125,-0.55 L11.2254395,-0.55 C11.6802508,-0.803845215 12.254446,-0.735503464 12.6449747,-0.344974747 L13.3449747,0.355025253 C13.8183418,0.828392257 13.8183418,1.57160774 13.3539994,2.03578251 L5.34497475,10.3449747 C5.11294469,10.5770048 4.8362055,10.7 4.5,10.7 C4.1637945,10.7 3.88705531,10.5770048 3.63704456,10.3263158 L-0.262955444,6.12631577 L-0.332435206,6.03829014 L-0.403258695,5.9320549 Z"></path>
                    </g>
                </g>
            </g>
        </g>
    </g>
</svg>