<?xml version="1.0" encoding="UTF-8"?>
<svg width="46px" height="46px" viewBox="0 0 46 46" version="1.1" xmlns="http://www.w3.org/2000/svg" xmlns:xlink="http://www.w3.org/1999/xlink">
    <!-- Generator: Sketch 48.2 (47327) - http://www.bohemiancoding.com/sketch -->
    <title>Group 26 Copy 2</title>
    <desc>Created with Sketch.</desc>
    <defs></defs>
    <g id="Custom-Preset" stroke="none" stroke-width="1" fill="none" fill-rule="evenodd" transform="translate(-593.000000, -865.000000)">
        <g id="Group-26-Copy-2" transform="translate(593.000000, 865.000000)">
            <path d="M23,46 C10.2974508,46 0,35.7025492 0,23 C0,10.2974508 10.2974508,0 23,0 C35.7025492,0 46,10.2974508 46,23 C46,35.7025492 35.7025492,46 23,46 Z M23,44 C34.5979797,44 44,34.5979797 44,23 C44,11.4020203 34.5979797,2 23,2 C11.4020203,2 2,11.4020203 2,23 C2,34.5979797 11.4020203,44 23,44 Z M23,41 C13.0588745,41 5,32.9411255 5,23 C5,13.0588745 13.0588745,5 23,5 C32.9411255,5 41,13.0588745 41,23 C41,32.9411255 32.9411255,41 23,41 Z" id="Combined-Shape-Copy-3" fill="#AF1F3F"></path>
            <g id="Group-34" transform="translate(16.000000, 12.000000)">
                <path d="M11.9362353,0 L2.42776471,0 C1.51776471,0 0.783176471,0.736 0.783176471,1.64203571 L0.783176471,20.90125 C0.783176471,21.8064643 1.51776471,22.5416429 2.42776471,22.5416429 L11.9362353,22.5416429 C12.8445882,22.5416429 13.5808235,21.8064643 13.5808235,20.90125 L13.5808235,1.64203571 C13.5808235,0.736 12.8445882,0 11.9362353,0 Z M4.83576471,0.997214286 L9.52988235,0.997214286 C9.64847059,0.997214286 9.74482353,1.17382143 9.74482353,1.39232143 C9.74482353,1.61082143 9.64847059,1.78825 9.52988235,1.78825 L4.83576471,1.78825 C4.71635294,1.78825 4.62164706,1.61082143 4.62164706,1.39232143 C4.62164706,1.17382143 4.71635294,0.997214286 4.83576471,0.997214286 Z M7.18282353,20.9209643 C6.60388235,20.9209643 6.13282353,20.4511071 6.13282353,19.8728214 C6.13282353,19.2945357 6.60388235,18.8263214 7.18282353,18.8263214 C7.76011765,18.8263214 8.23117647,19.2945357 8.23117647,19.8728214 C8.23117647,20.4511071 7.76011765,20.9209643 7.18282353,20.9209643 Z M12.3488235,17.3321429 L2.016,17.3321429 L2.016,2.77067857 L12.3488235,2.77067857 L12.3488235,17.3321429 Z" id="Shape" fill="#FFFFFF" fill-rule="nonzero"></path>
                <circle id="Oval-2" fill="#AF1F3F" cx="11.5" cy="9.5" r="5.5"></circle>
                <path d="M11.5,4 C8.45,4 6,6.45 6,9.5 C6,12.55 8.45,15 11.5,15 C14.55,15 17,12.55 17,9.5 C17,6.45 14.55,4 11.5,4 Z M14.675,7.775 L10.675,11.925 C10.625,11.975 10.575,12 10.5,12 C10.425,12 10.35,11.975 10.325,11.925 L8.375,9.825 L8.325,9.775 C8.275,9.725 8.25,9.65 8.25,9.6 C8.25,9.55 8.275,9.475 8.325,9.425 L8.675,9.075 C8.775,8.975 8.925,8.975 9.025,9.075 L9.05,9.1 L10.425,10.575 C10.475,10.625 10.55,10.625 10.6,10.575 L13.95,7.1 L13.975,7.1 C14.075,7 14.225,7 14.325,7.1 L14.675,7.45 C14.775,7.525 14.775,7.675 14.675,7.775 Z" id="Shape" fill="#FFFFFF" fill-rule="nonzero"></path>
            </g>
        </g>
    </g>
</svg>