<?xml version="1.0" encoding="UTF-8"?>
<svg width="44px" height="44px" viewBox="0 0 44 44" version="1.1" xmlns="http://www.w3.org/2000/svg" xmlns:xlink="http://www.w3.org/1999/xlink">
    <!-- Generator: Sketch 48.2 (47327) - http://www.bohemiancoding.com/sketch -->
    <title>Group 17 Copy</title>
    <desc>Created with Sketch.</desc>
    <defs>
        <circle id="path-1" cx="22" cy="22" r="22"></circle>
    </defs>
    <g id="Custom-Preset" stroke="none" stroke-width="1" fill="none" fill-rule="evenodd" transform="translate(-596.000000, -931.000000)">
        <g id="Group-17-Copy" transform="translate(596.000000, 931.000000)">
            <g id="Oval-4-Copy">
                <use fill="#FFFFFF" fill-rule="evenodd" xlink:href="#path-1"></use>
                <circle stroke="#AF1F3F" stroke-width="2" cx="22" cy="22" r="21"></circle>
            </g>
            <path d="M29.9920578,26.6277625 C30.0282265,26.8790087 29.9394636,27.1320926 29.7543282,27.3055858 L27.500891,29.542003 C27.3878079,29.6632112 27.2520619,29.761034 27.1013455,29.8299279 C26.9491403,29.9058091 26.7860224,29.9574184 26.6178953,29.9828881 L26.5180089,29.990886 C26.4449608,29.997645 26.3716144,30.0006482 26.2982588,29.9998836 C25.3299391,29.9658613 24.3774081,29.7441562 23.4934488,29.3470538 C22.6679453,28.9864295 21.8769173,28.5514178 21.1301366,28.0473925 C20.1126719,27.3566356 19.1699708,26.5615396 18.3173356,25.6750108 C17.6035392,24.9834922 16.946497,24.2356063 16.3525702,23.4385937 C15.8870448,22.8119907 15.4680629,22.1520587 15.0989959,21.4641083 C14.8156694,20.9374882 14.5777431,20.3876376 14.3878047,19.8205366 C14.2484041,19.4057281 14.1405521,18.9809601 14.0651717,18.5498678 C14.0158155,18.2738001 13.994398,17.9934548 14.0012444,17.7130859 C14.0122319,17.513138 14.0172262,17.3971682 14.0172262,17.3741742 C14.0432893,17.2063628 14.0948264,17.0435245 14.1700524,16.8913001 C14.23863,16.7400451 14.3367848,16.6040717 14.4587241,16.4914043 L16.7121612,14.2369919 C16.8525668,14.0871092 17.0482719,14.0014584 17.2535455,14.0000536 C17.3938323,13.9982322 17.5307872,14.0428695 17.6431024,14.1270205 C17.7571914,14.2136686 17.8549429,14.3199692 17.9317741,14.4409387 L19.7447122,17.8810421 C19.8456104,18.0612557 19.8755382,18.2727166 19.8286168,18.4738876 C19.7886709,18.6791115 19.6885166,18.8677617 19.540944,19.0157464 L18.710888,19.8465299 C18.682613,19.8778534 18.6623858,19.9155982 18.6519551,19.9565012 C18.6363,19.9970823 18.6275225,20.0399943 18.6259846,20.0834681 C18.6884043,20.3675184 18.7909888,20.6412044 18.9306381,20.8962563 C19.1135203,21.2427346 19.3232583,21.5743309 19.5579247,21.8879978 C19.9199582,22.3689704 20.3208516,22.8193677 20.7565615,23.2346468 C21.1748012,23.6746653 21.6281161,24.0798968 22.1120199,24.446331 C22.4260352,24.6826695 22.7572474,24.8952053 23.1028929,25.0821653 C23.295429,25.1889944 23.5004179,25.2715991 23.7131988,25.3281012 L23.924958,25.3700903 C23.9630093,25.3670404 24.0003856,25.3582779 24.0358319,25.344097 C24.0765033,25.3331584 24.1141039,25.3129731 24.1457069,25.2851124 L25.1106095,24.3023685 C25.3052086,24.1251269 25.5597053,24.028312 25.8227996,24.0314392 C25.9814951,24.0230489 26.1395201,24.0575824 26.2802793,24.1314131 L26.2972599,24.1314131 L29.5665417,26.0629097 C29.7833098,26.180757 29.9384928,26.3867551 29.9920578,26.6277625 Z" id="Forma_1_copy_25" fill="#AF1F3F"></path>
        </g>
    </g>
</svg>